<?xml version="1.0" standalone="no"?>
<!DOCTYPE svg PUBLIC "-//W3C//DTD SVG 20010904//EN"
 "http://www.w3.org/TR/2001/REC-SVG-20010904/DTD/svg10.dtd">
<svg version="1.0" xmlns="http://www.w3.org/2000/svg"
 width="1636.000000pt" height="783.000000pt" viewBox="0 0 1636.000000 783.000000"
 preserveAspectRatio="xMidYMid meet">
<metadata>
Created by potrace 1.16, written by Peter Selinger 2001-2019
</metadata>
<g transform="translate(0.000000,783.000000) scale(0.100000,-0.100000)"
fill="#000000" stroke="none">
<path d="M5712 7822 c-12 -2 -20 -8 -17 -13 4 -5 25 -6 48 -3 31 4 38 3 27 -5
-8 -6 -33 -11 -55 -12 -30 0 -35 -2 -20 -8 18 -7 18 -9 -10 -23 -17 -9 -49
-15 -75 -13 -30 2 -48 -2 -55 -12 -9 -12 -17 -12 -50 -1 -23 8 -40 19 -40 28
0 8 -7 15 -15 15 -8 0 -15 -7 -15 -15 0 -10 -18 -18 -55 -26 -81 -16 -91 -22
-37 -23 26 -1 62 6 78 15 27 14 33 14 47 1 30 -27 74 -29 115 -7 26 14 43 18
51 11 8 -7 34 2 83 26 l72 36 43 -20 c24 -11 75 -23 113 -27 62 -6 73 -10 97
-39 16 -18 28 -38 28 -45 0 -7 14 -15 30 -18 17 -4 30 -11 30 -17 0 -6 3 -7 7
-4 8 9 -27 47 -44 47 -7 0 -13 3 -13 8 0 19 -63 72 -88 73 -24 2 -25 2 -4 6
18 4 21 8 12 18 -8 10 -8 15 1 21 8 5 9 3 4 -6 -5 -8 -4 -11 2 -7 6 4 13 16
16 27 4 17 1 21 -16 18 -12 -2 -21 -9 -19 -16 1 -8 -2 -11 -8 -7 -5 3 -10 1
-10 -5 0 -9 -27 -7 -70 6 -12 4 -12 7 -1 13 9 6 1 8 -20 6 -19 -2 -40 -3 -47
-4 -7 -1 -10 -5 -7 -11 3 -5 -3 -10 -14 -10 -23 0 -29 16 -8 23 13 5 -55 4
-91 -1z"/>
<path d="M8050 7309 c0 -7 -10 -9 -24 -5 -27 7 -56 -1 -56 -15 0 -5 7 -9 16
-9 15 0 15 -2 0 -25 -15 -22 -15 -25 1 -33 14 -9 14 -11 -5 -21 -17 -9 -23 -8
-30 5 -13 23 -88 16 -86 -8 2 -20 -1 -20 -31 -9 -11 5 -30 5 -42 0 -18 -7 -23
-5 -23 7 0 8 -4 13 -9 10 -5 -4 -11 0 -14 6 -3 10 -11 9 -34 -3 -20 -11 -35
-13 -47 -7 -10 6 -16 5 -16 -2 0 -5 -7 -10 -15 -10 -8 0 -12 -6 -9 -14 5 -14
-45 -61 -54 -51 -3 3 3 12 14 20 20 15 13 19 -34 15 -32 -2 -114 -39 -108 -49
3 -4 -8 -15 -25 -25 -16 -9 -29 -21 -29 -27 0 -5 -4 -9 -10 -9 -5 0 -7 6 -4
14 4 10 -6 14 -41 14 -38 1 -46 -2 -41 -14 4 -10 -3 -18 -24 -25 -16 -6 -28
-16 -27 -22 1 -6 -6 -13 -15 -15 -13 -2 -16 1 -12 12 3 9 2 16 -3 16 -5 0 -10
-11 -11 -25 -1 -16 3 -25 13 -25 8 0 15 -5 15 -10 0 -6 -6 -10 -12 -9 -26 3
-56 -13 -61 -33 -3 -11 -10 -17 -16 -14 -6 4 -13 -5 -17 -19 -3 -14 -10 -25
-15 -25 -17 0 -24 -2 -41 -11 -12 -6 -18 -6 -18 1 0 5 -5 10 -11 10 -5 0 -8
-4 -4 -9 3 -5 1 -12 -5 -16 -5 -3 -10 -18 -10 -33 0 -37 -12 -53 -30 -42 -13
8 -12 10 3 10 10 0 17 7 16 18 0 9 -3 12 -5 6 -3 -7 -14 -10 -24 -7 -11 3 -17
10 -13 17 3 6 -4 1 -16 -12 -17 -17 -26 -20 -36 -12 -10 8 -13 5 -11 -15 1
-29 11 -32 24 -9 6 10 14 14 22 9 10 -6 9 -9 -1 -15 -7 -5 -14 -16 -15 -26 -3
-19 -24 -35 -37 -27 -4 3 -11 -5 -14 -17 -3 -13 -11 -19 -19 -16 -10 4 -14 -3
-14 -19 0 -14 5 -25 10 -25 6 0 10 -4 10 -10 0 -5 -11 -10 -25 -10 -14 0 -25
4 -25 8 0 5 -7 9 -15 9 -8 0 -15 -4 -15 -8 0 -4 -24 -7 -52 -6 -29 0 -47 2
-40 5 6 2 10 8 7 12 -3 5 -11 7 -18 4 -8 -3 -13 4 -13 16 0 11 4 20 8 20 20 0
6 30 -14 31 -13 0 -18 3 -11 5 13 6 6 75 -9 85 -5 3 1 22 13 43 l21 36 -78 -4
c-51 -4 -72 -2 -59 4 11 5 14 9 7 9 -7 1 -10 5 -7 11 3 6 -1 7 -9 4 -9 -3 -16
-2 -16 4 0 15 32 24 40 12 5 -8 12 -7 22 4 9 8 18 12 22 9 3 -4 6 2 6 13 0 13
-7 20 -19 20 -11 0 -18 -3 -15 -7 2 -4 -19 -6 -46 -5 -37 2 -55 -3 -70 -16
-16 -15 -21 -16 -33 -3 -8 8 -19 11 -23 7 -5 -4 -6 -3 -2 2 4 5 -4 20 -18 33
-14 12 -23 27 -20 32 3 5 -1 11 -9 15 -9 3 -15 18 -15 38 0 18 -7 46 -15 62
-8 15 -15 37 -15 48 0 18 -1 18 -16 4 -11 -11 -12 -21 -6 -33 7 -12 6 -20 -5
-28 -22 -16 -8 -76 19 -83 17 -4 19 -10 14 -44 -4 -21 -2 -47 4 -58 16 -29 23
-90 11 -90 -6 0 -11 7 -11 15 0 8 -5 15 -11 15 -5 0 -7 5 -4 10 3 6 -1 10 -9
10 -8 0 -18 -4 -21 -10 -3 -5 -2 -10 3 -10 20 0 21 -33 3 -56 -11 -13 -21 -21
-23 -16 -1 5 -16 4 -31 -3 l-29 -12 36 -17 c19 -9 38 -21 41 -26 3 -5 12 -7
19 -4 7 3 19 -2 26 -11 17 -21 37 -19 45 5 3 11 19 29 36 41 16 11 27 24 24
29 -16 26 87 35 135 12 34 -17 35 -18 35 -81 1 -53 4 -66 23 -81 25 -21 27
-31 10 -77 -12 -33 -28 -45 -28 -21 0 7 -7 2 -16 -10 -10 -14 -14 -32 -10 -48
5 -17 2 -24 -9 -24 -25 0 -17 -27 16 -55 25 -21 38 -25 63 -19 17 3 33 8 35
10 8 7 -12 25 -27 23 -29 -3 -31 0 -21 31 7 18 27 39 57 56 52 31 71 35 159
34 56 0 64 2 79 26 14 21 15 30 6 45 -8 12 -8 19 -2 19 5 0 10 12 10 27 0 27
44 83 65 83 6 0 29 24 51 54 21 30 41 50 44 45 3 -4 20 0 38 11 25 15 32 27
32 50 0 24 4 30 20 30 34 0 80 28 74 45 -4 10 0 15 15 15 13 0 21 6 21 16 0
12 7 15 26 11 29 -5 65 10 92 40 19 21 126 45 140 31 5 -5 20 -2 35 5 15 8 24
17 20 20 -6 7 21 11 41 8 5 -1 17 6 27 15 12 10 27 14 42 10 16 -4 29 0 37 9
18 21 50 19 76 -6 22 -21 24 -21 78 -4 30 10 62 15 70 12 8 -3 26 3 40 14 14
11 26 18 26 14 0 -3 9 -1 20 5 11 6 20 20 20 31 0 14 5 19 18 17 9 -2 16 -11
14 -20 -3 -18 134 -141 152 -135 6 2 17 16 25 31 12 26 16 28 54 22 23 -4 44
-12 48 -18 4 -6 14 -8 23 -5 19 8 24 1 42 -69 12 -47 12 -62 2 -85 -7 -16 -17
-29 -23 -29 -5 0 -25 -17 -45 -38 -34 -37 -70 -54 -117 -53 -13 1 -23 -3 -23
-8 0 -6 -12 -11 -27 -13 -49 -6 -38 -26 14 -23 35 2 50 -1 59 -13 11 -16 14
-15 36 6 30 27 34 27 68 -1 20 -17 36 -23 59 -19 17 2 31 7 31 11 0 3 30 6 66
7 65 0 83 10 84 42 0 15 -37 16 -42 0 -2 -6 -12 -9 -21 -5 -16 6 -16 8 -2 31
21 32 34 36 126 41 74 5 77 4 94 -21 16 -25 17 -25 36 -8 13 11 17 24 13 40
-7 27 -2 28 46 11 51 -18 60 -26 60 -52 0 -17 8 -26 30 -34 20 -7 30 -17 30
-31 0 -20 46 -48 58 -35 3 3 12 -9 20 -27 14 -31 16 -38 20 -62 1 -5 9 -2 18
5 13 11 17 10 25 -3 5 -10 17 -14 29 -11 11 3 20 1 20 -5 0 -15 58 -42 76 -35
8 3 20 0 28 -6 20 -16 27 -1 11 23 -22 30 -20 59 3 52 13 -5 27 4 48 30 16 19
36 44 46 54 9 10 14 21 11 24 -4 3 -1 6 5 6 7 0 13 -1 15 -2 1 -2 22 11 47 29
47 33 110 53 110 34 0 -5 -5 -13 -10 -16 -17 -10 -2 -22 26 -22 19 0 37 -13
64 -44 28 -33 45 -44 71 -46 43 -3 156 -12 191 -16 16 -2 31 -7 35 -10 3 -4
22 -7 40 -7 23 0 41 -8 56 -24 36 -39 63 -42 84 -9 24 37 34 43 54 32 28 -15
44 -11 80 20 38 34 97 40 137 15 26 -17 52 -12 77 16 13 15 22 17 42 9 14 -5
31 -5 40 -1 19 11 102 -2 140 -22 17 -8 35 -11 43 -6 20 12 63 -7 100 -45 19
-19 39 -35 46 -35 7 0 9 -10 6 -26 -3 -16 -7 -21 -12 -14 -5 9 -9 9 -14 1 -4
-6 -18 -9 -32 -7 -13 3 -24 1 -24 -4 0 -4 41 -50 90 -101 68 -70 90 -87 90
-71 0 11 4 23 9 27 13 8 51 -48 51 -77 0 -12 7 -32 15 -42 8 -10 12 -23 9 -27
-3 -5 1 -6 9 -4 7 3 25 -5 39 -18 26 -24 62 -41 111 -51 15 -4 25 -11 22 -16
-6 -10 54 -3 99 11 16 5 38 9 49 9 23 0 65 -44 73 -78 7 -24 32 -42 59 -42 9
0 34 -9 57 -20 23 -11 57 -22 77 -26 20 -3 45 -9 56 -14 11 -4 28 -11 37 -14
10 -3 25 -22 33 -43 15 -35 15 -51 4 -92 -3 -9 16 -19 59 -32 67 -19 95 -35
86 -50 -3 -5 8 -23 25 -39 35 -35 76 -40 86 -10 7 24 30 26 39 5 6 -16 41 -21
50 -6 9 14 46 1 59 -20 7 -11 22 -19 34 -19 28 0 75 -20 90 -40 14 -16 14 -16
18 18 1 12 -1 22 -5 22 -4 0 -10 7 -14 15 -4 10 1 15 14 15 11 0 20 -4 20 -10
0 -30 97 -82 145 -77 16 2 21 -5 23 -29 2 -22 12 -35 35 -49 29 -17 47 -34
123 -117 39 -41 49 -45 122 -45 59 0 77 -4 95 -20 18 -17 30 -19 67 -14 41 6
43 7 20 15 -21 7 -22 9 -7 13 10 3 26 -2 35 -11 17 -15 45 -16 58 -3 11 10 54
9 54 -2 0 -16 74 -40 87 -29 7 6 10 14 7 19 -11 18 25 9 38 -9 7 -11 23 -24
36 -31 12 -6 22 -18 22 -26 0 -7 18 -32 39 -54 22 -23 41 -46 43 -53 4 -10 10
-10 32 0 15 6 38 12 51 12 13 0 27 5 30 10 9 14 89 12 103 -2 7 -7 12 -25 12
-41 0 -16 12 -43 27 -63 22 -27 37 -35 74 -40 51 -7 99 -42 99 -74 0 -10 5
-22 10 -25 6 -3 10 -12 10 -20 0 -8 14 -29 30 -47 17 -18 30 -40 30 -49 0 -9
9 -24 20 -34 11 -10 20 -25 20 -34 1 -24 21 -45 63 -64 20 -10 37 -23 37 -29
0 -5 11 -23 24 -39 13 -15 27 -46 31 -68 4 -24 15 -46 28 -55 12 -8 35 -26 50
-40 16 -14 32 -26 35 -28 28 -13 131 -183 118 -195 -3 -4 -1 -12 4 -18 7 -9 6
-16 -4 -24 -22 -19 -8 -41 26 -41 25 0 28 3 19 14 -9 11 -7 15 11 19 23 6 98
-2 98 -10 0 -12 -25 -49 -42 -63 -18 -14 -19 -20 -9 -57 9 -31 17 -42 34 -45
26 -4 36 -46 15 -62 -7 -6 -24 -28 -36 -49 -21 -36 -21 -41 -8 -80 13 -38 18
-43 54 -48 53 -7 142 -79 98 -79 -45 0 -6 -74 44 -85 16 -3 39 -14 52 -24 13
-10 33 -21 44 -25 24 -7 38 -58 20 -76 -7 -7 -5 -10 7 -10 9 0 17 -5 17 -10 0
-16 52 -70 66 -70 8 0 23 -14 36 -30 27 -37 86 -74 113 -71 23 2 63 -45 85
-97 11 -29 11 -35 -1 -43 -21 -13 -34 -5 -33 20 0 13 -5 21 -16 21 -18 0 -35
-47 -32 -84 1 -10 -3 -25 -9 -33 -9 -10 -8 -17 4 -31 15 -16 15 -19 -4 -31
-19 -11 -19 -14 -5 -24 21 -16 10 -53 -17 -61 -22 -6 -21 -7 6 -27 15 -11 27
-29 27 -40 0 -11 7 -19 17 -19 9 0 25 -8 35 -17 14 -13 21 -14 30 -5 9 9 9 12
0 12 -7 0 -12 7 -12 15 0 8 8 15 18 15 15 0 18 -8 18 -46 1 -46 15 -67 41 -57
9 4 11 0 6 -13 -6 -18 -6 -18 14 -1 24 21 37 22 53 2 8 -9 21 -13 35 -9 16 4
26 0 32 -11 8 -14 12 -13 28 11 10 16 19 44 20 62 3 40 20 54 57 46 14 -3 29
0 33 5 3 6 1 11 -4 11 -6 0 -11 7 -11 15 0 10 -10 15 -30 15 -19 0 -30 5 -30
14 0 10 -7 12 -22 8 -16 -4 -19 -2 -13 9 11 17 46 43 60 44 5 0 20 4 33 8 17
7 28 2 53 -22 33 -34 55 -37 106 -19 30 11 35 10 48 -10 11 -15 31 -23 65 -28
56 -7 130 -55 130 -84 0 -10 11 -25 25 -34 14 -9 25 -14 25 -10 0 13 57 -104
64 -132 4 -16 32 -52 62 -81 30 -28 54 -59 54 -68 0 -10 29 -44 65 -77 64 -60
65 -61 65 -113 0 -35 5 -57 15 -65 8 -7 15 -23 15 -37 0 -29 -18 -65 -29 -59
-4 3 -6 -6 -3 -19 2 -15 0 -25 -7 -25 -6 0 -11 -7 -11 -15 0 -8 5 -15 10 -15
6 0 10 -12 10 -27 0 -21 -3 -24 -12 -15 -16 16 -43 15 -58 -3 -11 -13 -16 -13
-46 6 -19 11 -38 18 -43 14 -5 -3 -14 3 -20 12 -8 15 -13 16 -30 5 -12 -6 -28
-12 -36 -12 -9 0 -18 -7 -21 -15 -4 -8 -12 -15 -19 -15 -17 0 -66 26 -75 40
-9 15 -60 -5 -60 -23 0 -20 -31 -80 -49 -93 -10 -8 -15 -29 -16 -65 0 -58 -5
-54 85 -73 24 -5 18 -51 -13 -97 -22 -33 -30 -57 -34 -108 l-5 -66 25 23 c14
13 28 35 31 48 4 13 11 24 16 24 6 0 10 11 10 24 0 31 18 45 58 44 55 -2 93
52 58 81 -11 9 -15 9 -18 0 -6 -19 -28 -1 -28 23 0 17 2 18 15 8 24 -20 43 3
21 25 -20 20 -21 49 -1 69 24 23 19 39 -11 32 -19 -5 -25 -3 -22 6 3 8 23 13
55 13 28 0 49 -3 46 -7 -2 -5 -13 -8 -24 -8 -10 0 -19 -4 -19 -9 0 -5 30 -9
67 -8 53 2 68 -1 68 -12 0 -8 6 -16 13 -19 6 -2 12 3 12 11 0 19 18 25 50 18
19 -5 26 -14 28 -35 2 -16 11 -40 19 -52 19 -30 57 -18 61 20 2 14 7 26 12 26
5 0 10 12 12 27 4 31 24 42 31 16 3 -10 4 5 4 34 -1 28 -4 49 -6 47 -2 -2 -11
6 -19 18 -14 19 -14 23 6 39 25 20 29 34 7 26 -25 -10 -29 15 -4 34 13 10 21
21 17 24 -4 4 -3 18 2 31 7 19 5 26 -11 38 -33 23 -71 84 -56 89 9 4 8 6 -2 6
-11 1 -11 4 0 17 11 13 10 17 -4 25 -9 6 -17 16 -17 24 0 7 -11 22 -25 33 -14
11 -25 25 -25 31 0 6 -5 11 -11 11 -7 0 -9 11 -6 30 5 24 2 33 -18 46 -19 13
-23 21 -18 49 4 27 2 34 -16 40 -13 4 -23 18 -27 40 -3 19 -11 32 -16 29 -5
-3 -7 -17 -4 -30 5 -20 3 -24 -14 -24 -17 0 -19 3 -12 17 16 28 -15 78 -59 97
-44 20 -49 31 -16 41 13 4 17 8 9 12 -6 2 -10 9 -7 14 4 5 -1 6 -10 3 -9 -4
-15 -3 -14 2 4 25 -3 44 -16 44 -8 0 -12 6 -9 15 8 19 -43 32 -68 16 -15 -9
-22 -9 -34 4 -9 8 -20 15 -25 15 -6 0 -8 4 -5 9 3 4 -6 6 -19 3 -17 -3 -27 1
-31 12 -3 9 -12 16 -18 16 -16 0 -66 52 -66 68 0 7 -4 12 -9 12 -4 0 -6 -12
-3 -27 4 -23 2 -26 -9 -15 -7 6 -24 12 -38 12 -28 0 -19 14 14 24 11 3 2 3
-20 0 -22 -3 -41 -10 -43 -15 -2 -5 -13 -9 -23 -9 -27 0 -61 19 -54 30 7 12
-7 19 -44 24 -17 2 -37 8 -44 14 -10 9 -17 8 -27 -1 -10 -9 -11 -9 -5 1 4 8 2
13 -6 11 -28 -3 -39 1 -39 16 0 14 -12 20 -33 16 -4 -1 -16 3 -25 8 -19 10
-50 -13 -32 -24 6 -3 10 -19 10 -35 0 -25 -4 -29 -24 -28 -21 2 -23 5 -15 26
13 34 11 52 -6 52 -11 0 -13 7 -9 28 4 19 0 34 -10 45 -9 8 -16 23 -16 31 0
10 -6 13 -17 9 -13 -5 -15 -3 -9 13 4 10 9 32 12 48 2 15 6 37 9 47 4 11 2 19
-5 19 -6 0 -8 -4 -5 -10 4 -6 -5 -10 -19 -10 -14 0 -26 5 -26 11 0 6 -6 9 -13
6 -10 -4 -12 3 -9 24 4 26 1 29 -22 29 -16 0 -26 5 -26 15 0 10 -10 15 -26 15
-22 0 -24 -2 -14 -15 6 -8 10 -20 7 -27 -4 -9 -6 -9 -6 2 -1 8 -11 20 -23 25
-18 8 -24 20 -26 54 -3 43 -4 43 -35 37 -18 -4 -33 -11 -35 -16 -5 -13 -32
-13 -32 -1 0 5 6 12 13 14 7 3 5 6 -6 6 -15 1 -17 7 -12 35 6 29 4 35 -14 41
-12 3 -21 11 -21 16 0 5 -16 17 -35 26 -39 18 -44 29 -17 36 13 4 12 5 -4 6
-22 1 -43 31 -23 31 7 0 9 10 5 25 -5 20 -3 25 14 25 11 0 20 -7 20 -15 0 -19
29 -19 36 0 4 8 16 15 28 15 12 0 34 11 49 25 23 23 26 29 16 48 -18 32 -33
45 -63 53 -14 3 -26 12 -26 20 0 19 -114 94 -143 94 -14 0 -30 7 -37 15 -15
18 1 20 19 3 11 -11 12 -10 3 6 -15 29 -45 30 -40 2 4 -19 1 -22 -14 -18 -12
3 -18 14 -18 34 0 23 4 29 16 24 9 -3 12 -2 9 5 -4 6 -13 8 -21 5 -20 -8 -28
17 -17 51 6 17 6 42 0 65 -7 29 -15 38 -38 43 -16 4 -32 13 -36 20 -5 7 -21
15 -38 17 -28 3 -30 6 -32 46 -4 61 -18 82 -54 82 -24 0 -30 4 -25 16 3 8 3
26 0 40 -5 19 -13 24 -36 24 -25 0 -28 3 -23 21 5 15 4 19 -4 14 -17 -10 -41
14 -41 41 0 14 -6 24 -14 24 -8 0 -17 10 -20 23 -2 12 -4 5 -2 -16 1 -20 -2
-36 -8 -34 -10 3 -16 26 -18 64 0 13 -4 20 -9 17 -5 -3 -9 2 -9 10 0 8 -12 27
-26 42 -22 21 -24 28 -13 36 11 8 11 9 -2 5 -19 -6 -39 10 -39 31 0 10 7 12
25 8 19 -5 25 -2 25 9 0 11 -7 14 -22 11 -13 -2 -40 -7 -60 -11 -26 -5 -38 -4
-38 4 0 6 7 11 16 11 8 0 12 5 9 11 -4 6 -10 8 -13 5 -11 -12 -31 67 -21 85
12 24 12 50 0 30 -18 -28 -38 -7 -70 72 -8 21 -16 27 -30 22 -11 -3 -24 1 -32
12 -12 15 -12 16 4 10 11 -4 17 -2 17 8 0 9 -10 15 -24 15 -13 0 -27 7 -30 16
-8 22 -9 21 17 29 20 6 20 8 3 12 -10 3 -22 0 -25 -6 -4 -6 -21 -14 -38 -17
-27 -5 -32 -3 -33 12 0 18 -6 72 -9 85 0 3 -13 12 -28 19 -26 12 -27 13 -8 21
16 6 11 8 -20 9 -46 2 -103 17 -71 19 11 1 16 4 12 8 -9 10 -127 15 -124 6 2
-4 -2 -8 -7 -8 -6 0 -9 3 -8 7 2 5 -6 8 -16 8 -15 0 -20 9 -23 40 -2 28 0 40
9 40 7 0 13 -10 14 -22 0 -22 1 -22 8 -3 5 11 4 23 -2 26 -5 4 -6 12 -2 19 8
12 -24 90 -37 90 -12 0 -10 -18 4 -39 9 -15 9 -28 -2 -60 -8 -27 -16 -37 -21
-29 -4 6 -3 20 3 31 11 21 3 67 -12 67 -6 0 -10 7 -10 15 0 8 -9 15 -20 15
-11 0 -20 7 -20 15 0 21 -38 39 -54 26 -15 -13 -27 -5 -20 14 6 15 -24 29 -40
17 -6 -5 -27 -9 -48 -11 -29 -2 -37 2 -43 18 -3 12 -19 28 -34 35 -25 13 -29
13 -44 -4 -23 -28 -26 -84 -5 -88 10 -2 25 4 34 12 19 20 34 12 34 -18 0 -12
5 -27 12 -34 20 -20 -10 -15 -38 7 -13 10 -35 17 -50 15 -14 -1 -23 0 -20 3 3
3 -1 15 -9 27 -8 11 -15 31 -15 44 l0 23 -28 -20 c-30 -21 -72 -19 -72 3 0 15
-76 50 -94 43 -16 -6 -15 -65 1 -76 6 -3 10 -19 8 -36 -1 -16 3 -33 9 -37 21
-14 -13 -35 -48 -29 -35 6 -131 85 -122 100 3 4 -6 13 -20 20 -14 6 -23 15
-20 20 3 4 -5 6 -18 4 -20 -4 -23 -1 -21 30 0 20 -2 35 -5 35 -18 -1 -19 5 -4
27 14 22 14 25 1 25 -8 0 -18 -6 -21 -12 -5 -10 -7 -10 -12 0 -8 18 -24 15
-25 -5 0 -11 -3 -13 -6 -5 -2 6 -17 12 -33 12 -20 0 -27 5 -26 18 1 11 -6 16
-17 15 -15 -1 -17 4 -13 23 4 16 2 23 -5 22 -7 -2 -18 8 -25 22 -20 38 -51 44
-78 15 -29 -31 -38 -31 -51 -3 -6 12 -26 27 -45 33 -29 10 -31 13 -15 17 11 3
-6 5 -38 4 -46 -1 -57 -4 -54 -16 3 -11 -7 -15 -40 -17 -24 -1 -43 2 -43 8 0
6 -4 8 -8 5 -11 -7 -42 30 -42 50 0 8 5 24 10 35 7 13 7 19 0 19 -5 0 -10 -7
-10 -15 0 -8 -7 -15 -15 -15 -8 0 -15 5 -15 11 0 5 -5 7 -11 3 -8 -4 -7 -9 2
-15 7 -4 11 -11 7 -14 -3 -3 -14 5 -25 19 -19 24 -52 30 -65 12 -3 -5 -9 11
-13 36 -6 38 -12 47 -31 52 -13 4 -24 11 -24 16 0 6 -7 10 -15 10 -21 0 -19
18 3 23 16 4 15 5 -2 12 -13 6 -29 3 -46 -7 -25 -14 -29 -14 -54 5 -22 15 -30
17 -36 7 -6 -10 -8 -10 -12 0 -2 7 -17 13 -32 13 -17 0 -23 2 -16 7 17 10 5
40 -15 40 -18 0 -37 43 -29 65 4 8 1 15 -5 15 -6 0 -11 -9 -11 -20 0 -30 -15
-24 -31 12 -8 18 -22 35 -33 36 -11 3 -16 0 -11 -7 3 -6 11 -9 16 -6 5 4 9 3
9 -2 0 -4 -37 -7 -83 -7 -135 2 -179 7 -184 21 -3 7 -16 13 -29 13 -17 0 -24
6 -24 19 0 11 -9 23 -21 26 -13 5 -18 10 -11 17 14 14 3 58 -14 51 -10 -4 -19
5 -26 25 -12 31 -55 51 -78 37 -5 -3 -10 -1 -10 4 0 6 6 11 13 11 6 0 4 5 -5
11 -23 13 -23 28 3 55 l20 22 -27 27 c-22 22 -24 29 -13 36 11 8 7 16 -21 40
-19 17 -34 33 -33 37 0 4 -6 13 -15 21 -14 13 -15 11 -9 -18 6 -28 5 -32 -7
-22 -8 7 -17 23 -20 36 -4 14 -11 25 -17 25 -6 0 -8 -10 -4 -22 5 -20 3 -20
-21 7 -17 19 -29 25 -32 17 -5 -17 -22 -15 -22 3 0 12 -4 13 -19 5 -29 -15
-41 -12 -41 10 0 11 -5 20 -11 20 -5 0 -7 -4 -4 -10 4 -6 -10 -10 -34 -10 -34
0 -41 3 -41 20 0 14 -7 20 -23 20 -25 0 -62 -32 -50 -43 3 -4 1 -7 -5 -7 -6 0
-14 9 -17 20 -7 21 -25 28 -25 9 0 -21 -34 -38 -76 -39 -22 0 -44 3 -48 8 -4
4 -34 7 -66 7 -42 0 -56 -3 -53 -13 4 -9 9 -10 19 -1 8 6 14 7 14 2 0 -5 -15
-17 -32 -28 -27 -15 -30 -16 -20 -2 12 14 10 15 -25 11 -62 -9 -92 -24 -86
-42 5 -12 2 -14 -11 -9 -10 4 -19 7 -22 7 -2 0 -1 7 2 15 6 13 1 16 -23 14 -5
0 -7 -7 -5 -15 4 -18 -12 -18 -28 0 -6 8 -18 12 -26 9 -8 -3 -14 0 -14 6 0 7
-20 11 -49 11 -59 0 -81 7 -81 26 0 20 -13 17 -28 -6 -7 -11 -20 -20 -29 -20
-14 0 -14 2 2 20 18 20 18 20 -23 17 -37 -3 -42 -1 -42 17 0 16 -2 18 -9 7
-12 -19 -33 -4 -29 22 2 15 -3 22 -17 22 -73 4 -75 5 -81 30 -10 42 -58 59
-69 25 -4 -12 -15 -19 -28 -19 -12 0 -33 -3 -46 -7 -16 -5 -22 -4 -18 3 5 7 0
9 -13 6 -11 -3 -20 -13 -20 -23 0 -10 -16 -28 -35 -41 -19 -13 -38 -32 -41
-41 -4 -14 -10 -15 -32 -7 -32 12 -92 3 -92 -14 0 -7 -11 -17 -25 -24 -23 -10
-25 -9 -25 14 0 22 -3 24 -29 18 -36 -8 -59 19 -56 65 1 23 -2 30 -16 30 -13
0 -22 13 -30 40 -7 24 -18 40 -27 40 -13 0 -12 -3 2 -19 12 -14 14 -24 7 -42
-9 -24 -10 -24 -16 7 -6 25 -11 31 -29 28 -11 -2 -15 -2 -8 2 25 12 11 19 -28
16 -28 -3 -47 1 -59 12 -9 9 -32 19 -49 22 -27 6 -32 4 -32 -14 0 -16 -9 -21
-55 -27 -30 -3 -55 -11 -55 -16 0 -5 -5 -9 -11 -9 -5 0 -7 5 -4 10 3 6 1 10
-5 10 -6 0 -8 4 -5 10 3 6 -1 7 -9 4 -9 -3 -14 -10 -13 -16 1 -5 -15 -11 -36
-12 -20 -2 -45 -10 -55 -19 -20 -19 -37 -23 -27 -7 3 6 4 10 1 10 -3 0 -14
-20 -25 -45 -19 -44 -34 -55 -46 -36 -3 6 3 14 12 20 17 10 16 10 -3 11 -13 0
-25 -10 -32 -26 -7 -14 -16 -22 -22 -19 -13 8 7 42 44 77 24 22 30 39 34 80 7
79 5 99 -8 112 -9 8 -10 4 -5 -16 10 -39 -9 -35 -23 5 -14 40 -15 50 -3 43 5
-4 7 3 4 14 -3 11 -12 20 -19 20 -8 0 -14 7 -14 15 0 10 -11 15 -35 15 -19 0
-35 5 -35 10 0 6 -15 10 -34 10 -24 0 -39 7 -49 21 -14 20 -16 20 -25 3 -9
-17 -12 -16 -23 11 -20 45 -42 64 -62 53 -11 -6 -17 -5 -17 2 0 5 -9 10 -20
10 -11 0 -20 7 -20 15 0 20 -10 19 -26 -2 -13 -17 -15 -17 -28 0 -15 19 -26
22 -26 6z"/>
<path d="M4916 7225 c-16 -15 -39 -25 -56 -25 -44 0 -59 -9 -77 -48 -10 -20
-25 -44 -35 -54 -10 -10 -19 -28 -19 -40 -1 -13 -3 -30 -4 -38 -1 -8 -3 -21
-4 -27 -1 -16 -35 -17 -61 -3 -26 14 -37 -6 -15 -30 16 -18 15 -18 -27 -14
-24 2 -48 11 -54 19 -12 16 -24 10 -24 -12 0 -8 -5 -19 -10 -26 -6 -7 -21 -28
-33 -47 -12 -19 -33 -36 -45 -38 -16 -2 -22 -10 -22 -27 0 -24 40 -105 66
-136 23 -26 17 -72 -14 -102 -16 -15 -30 -25 -33 -23 -2 2 -21 7 -41 10 -27 4
-38 2 -38 -7 -1 -7 -6 -5 -14 6 -16 21 -46 23 -46 2 0 -9 -9 -15 -24 -15 -19
0 -25 -7 -30 -36 -4 -19 -15 -38 -24 -41 -46 -18 -54 -53 -17 -73 27 -14 35
-36 10 -26 -9 3 -15 0 -15 -9 0 -8 5 -15 11 -15 7 0 9 -9 6 -21 -5 -18 -2 -20
21 -15 27 6 27 6 -3 -10 -41 -23 -42 -24 -22 -36 17 -9 17 -11 2 -22 -16 -12
-16 -13 0 -29 9 -9 11 -17 5 -17 -6 0 -13 7 -16 15 -8 20 -42 11 -69 -19 -30
-32 -65 -46 -112 -43 -24 2 -44 0 -45 -5 -2 -4 -24 -9 -50 -10 -30 -2 -43 -7
-37 -13 9 -9 -35 -57 -65 -68 -9 -4 -16 -11 -16 -17 0 -5 -12 -10 -26 -10 -17
0 -38 -12 -60 -35 -36 -39 -44 -42 -44 -20 0 8 -5 15 -12 15 -6 0 -3 9 7 20
20 22 20 25 -12 34 -17 5 -23 3 -23 -7 0 -15 -52 -123 -70 -144 -5 -7 -10 -17
-10 -23 0 -6 -4 -8 -10 -5 -5 3 -15 -3 -22 -15 -7 -11 -19 -20 -26 -20 -9 0
-11 -7 -6 -22 10 -35 44 -52 44 -23 0 8 2 15 4 15 2 0 20 -7 39 -15 20 -8 40
-15 45 -15 5 0 15 21 22 48 17 60 35 82 26 29 -5 -24 -3 -44 4 -52 9 -11 4
-22 -25 -49 -20 -20 -41 -36 -46 -36 -5 0 -9 -8 -9 -18 0 -28 -36 -53 -68 -47
-19 4 -22 3 -9 -3 16 -7 17 -10 5 -19 -8 -7 -19 -8 -28 -3 -18 11 -62 -12 -84
-44 -9 -14 -16 -45 -17 -68 0 -36 -2 -39 -9 -20 -5 12 -17 22 -26 22 -11 0
-14 5 -10 16 17 44 18 64 3 64 -8 0 -18 6 -21 13 -5 10 -7 10 -12 0 -10 -21
-33 -14 -40 11 -7 29 2 47 19 40 7 -2 20 9 30 25 15 25 15 30 2 41 -8 7 -15
18 -15 26 0 30 -24 61 -56 73 -18 7 -46 28 -62 46 -19 24 -47 41 -87 55 -70
24 -75 24 -75 5 0 -8 -4 -15 -10 -15 -5 0 -10 -9 -10 -21 0 -13 -4 -18 -11
-13 -8 5 -10 -1 -7 -19 5 -23 1 -26 -36 -33 -23 -4 -45 -6 -51 -4 -5 1 -25 3
-42 2 -18 0 -33 3 -33 8 0 4 -11 5 -25 2 -14 -2 -25 -8 -25 -13 0 -9 -52 -5
-87 6 -13 4 -23 11 -23 15 0 5 -13 11 -29 15 -16 3 -32 12 -34 19 -3 8 -15 12
-31 9 -22 -5 -23 -8 -14 -29 7 -14 20 -24 32 -24 16 0 18 -2 7 -9 -8 -5 -12
-18 -8 -30 3 -12 1 -19 -4 -15 -5 3 -9 0 -9 -6 0 -17 -26 12 -34 38 -4 12 -14
22 -22 22 -8 0 -14 5 -14 11 0 7 -10 9 -25 7 -13 -3 -22 -2 -20 2 6 9 -23 35
-31 27 -3 -3 0 -14 8 -26 11 -18 10 -23 -7 -36 -11 -8 -30 -14 -42 -11 -13 2
-28 -3 -34 -10 -6 -8 -24 -14 -40 -14 -15 0 -31 -5 -34 -10 -4 -6 -11 -8 -16
-5 -5 4 -13 -5 -19 -19 -5 -15 -13 -25 -17 -24 -22 4 -63 -17 -69 -35 -9 -30
-52 -80 -76 -89 -23 -9 -59 -85 -50 -107 3 -9 2 -13 -3 -9 -12 11 -35 -11 -35
-33 0 -19 -33 -43 -44 -32 -3 3 -6 -11 -6 -32 0 -35 -1 -37 -14 -20 -13 18
-14 18 -24 -1 -17 -32 -25 -91 -14 -110 5 -9 24 -19 41 -20 25 -3 31 0 31 14
0 23 8 32 24 26 8 -3 11 -15 9 -28 -3 -15 1 -25 11 -29 9 -4 16 -2 16 3 0 11
32 1 42 -14 4 -6 0 -14 -10 -18 -16 -6 -16 -7 1 -7 9 -1 17 -6 17 -11 0 -19
69 -8 76 12 4 14 9 15 30 6 24 -11 34 -38 14 -38 -6 0 -8 -12 -5 -27 6 -27 5
-27 -7 -7 -7 12 -19 19 -26 17 -6 -3 -10 -9 -7 -13 5 -8 -45 3 -62 13 -5 3
-17 -1 -28 -9 -10 -8 -13 -14 -7 -14 15 0 16 -42 0 -58 -9 -9 -7 -13 6 -18 10
-4 22 -2 28 4 8 8 14 7 23 -2 21 -21 21 -52 1 -75 -11 -12 -14 -21 -8 -21 7 0
12 -4 12 -9 0 -5 -16 -4 -35 2 -23 7 -34 15 -31 24 3 7 -4 18 -15 23 -13 7
-18 17 -14 29 4 12 -2 21 -20 29 -47 22 -78 12 -87 -28 -2 -8 -6 -17 -10 -20
-3 -3 -10 -32 -13 -65 -9 -72 -31 -107 -96 -147 -27 -16 -49 -31 -49 -33 0 -2
26 5 57 16 31 10 65 17 75 13 23 -7 67 42 68 77 0 38 19 53 43 31 18 -16 20
-16 34 3 13 16 15 17 10 3 -10 -27 16 -22 68 13 44 30 68 64 58 82 -3 5 2 16
10 25 17 19 71 125 82 160 3 12 10 20 15 17 7 -4 20 17 20 34 0 10 -79 61 -94
61 -7 0 -18 6 -25 13 -6 6 -26 12 -44 12 -26 0 -33 5 -35 23 -2 12 -10 22 -18
22 -8 0 -14 9 -14 20 0 11 -7 20 -16 20 -20 0 -15 39 9 63 12 12 17 27 13 40
-7 27 5 47 64 108 27 28 52 60 55 70 4 11 19 22 35 25 15 4 33 16 40 28 16 31
110 63 110 37 0 -11 81 -9 99 3 10 7 20 2 36 -17 16 -21 29 -27 62 -27 34 0
46 6 68 31 l26 32 72 -8 c40 -4 83 -6 97 -5 88 5 118 3 145 -13 17 -9 38 -19
48 -23 9 -3 17 -15 17 -25 0 -10 5 -21 10 -24 6 -4 8 -10 5 -15 -10 -17 25
-32 59 -26 21 4 37 2 41 -4 4 -6 24 -22 46 -36 22 -14 44 -35 49 -48 10 -28
-1 -81 -17 -81 -6 0 -20 -12 -31 -26 -23 -28 -39 -79 -25 -79 4 0 14 -10 22
-21 10 -18 10 -23 0 -30 -17 -10 3 -35 36 -43 14 -4 25 -13 25 -20 0 -9 7 -12
20 -9 16 4 21 -1 26 -26 4 -17 10 -31 14 -31 4 0 11 -11 14 -25 6 -25 19 -30
64 -26 13 1 25 -5 30 -16 8 -20 27 -27 50 -18 13 5 13 8 -1 23 -13 15 -14 22
-1 57 7 22 14 47 14 56 0 9 7 22 15 29 8 7 15 22 15 34 0 12 11 28 26 37 l26
16 -24 15 c-38 24 -58 29 -64 15 -3 -8 -17 -11 -39 -9 -36 4 -49 22 -16 22 19
0 22 9 37 95 3 17 6 41 7 54 2 28 66 70 108 71 22 0 32 10 60 65 18 36 37 65
41 65 4 0 12 9 18 20 8 15 7 26 -5 43 -8 13 -12 27 -9 30 4 4 7 21 6 38 0 17
10 49 24 70 20 33 30 39 58 39 28 0 36 5 44 29 7 19 25 35 55 50 25 12 47 26
49 32 4 11 196 41 210 33 6 -4 26 -10 45 -15 32 -7 39 -4 72 29 20 20 35 42
33 48 -1 6 7 14 19 17 17 5 20 9 12 19 -6 7 -11 26 -11 41 1 31 -29 95 -52
114 -13 11 -13 12 3 13 12 0 17 8 17 28 0 48 47 72 69 35 10 -17 10 -17 11 0
0 10 8 17 19 17 11 0 23 5 26 10 9 15 22 4 41 -35 11 -24 23 -35 38 -35 23 0
71 -29 49 -30 -19 0 -16 -24 7 -48 16 -16 32 -22 66 -22 28 0 43 -4 39 -10
-10 -16 8 -11 33 9 12 11 22 26 22 34 0 17 -50 57 -70 57 -19 0 -6 35 15 38
32 6 57 33 45 48 -6 6 -8 23 -5 37 8 29 -2 37 -52 41 -25 3 -39 9 -41 20 -2 9
-8 16 -13 16 -5 0 -17 17 -26 38 -9 20 -31 52 -47 70 -16 17 -26 32 -22 32 5
0 -3 9 -17 20 -19 15 -24 26 -19 39 9 23 72 77 72 62 0 -7 21 -21 48 -32 26
-11 54 -27 64 -35 24 -22 31 -4 29 77 l-1 70 35 15 c33 13 35 17 35 60 0 39 5
51 35 81 19 19 35 43 35 53 0 26 19 35 37 18 20 -20 61 -11 69 16 3 11 13 29
22 39 22 25 9 21 -22 -8z"/>
<path d="M1689 4677 c-42 -32 -69 -62 -72 -78 -5 -21 -16 -29 -65 -43 -33 -10
-68 -18 -78 -19 -42 0 -55 3 -49 13 3 6 -5 10 -18 10 -14 0 -27 -7 -31 -15 -4
-11 -22 -15 -75 -15 -38 0 -73 -5 -76 -10 -4 -6 -11 -7 -17 -4 -24 15 -312 33
-325 21 -2 -3 -6 -13 -8 -24 -2 -10 -4 -19 -5 -20 -2 -2 -3 -6 -4 -10 -3 -17
-25 -47 -26 -36 0 7 -6 12 -12 10 -7 -1 -12 4 -10 11 2 10 -4 11 -20 6 -13 -4
-45 -7 -73 -6 -27 0 -55 -4 -61 -9 -9 -7 -19 -6 -33 3 -17 10 -26 9 -55 -5
-32 -15 -36 -15 -36 -1 0 24 -43 -21 -46 -48 -1 -13 -3 -24 -3 -25 -1 0 -22 5
-48 13 -54 16 -129 18 -138 4 -3 -5 -2 -10 3 -10 18 0 21 -42 5 -66 -17 -27
-10 -59 11 -51 21 8 28 -20 9 -38 -14 -15 -13 -15 12 -9 27 7 28 6 21 -22 -5
-21 -4 -25 4 -14 8 13 10 13 10 -2 0 -9 -7 -23 -15 -32 -8 -8 -15 -19 -15 -25
0 -6 -5 -11 -11 -11 -6 0 -9 9 -6 20 3 11 1 20 -4 20 -13 0 -39 -55 -39 -83 0
-17 -7 -26 -21 -30 -16 -4 -20 -11 -16 -28 8 -32 -28 -58 -80 -59 -24 0 -43 5
-43 10 0 16 -40 56 -41 42 -1 -7 -2 -16 -3 -22 0 -5 -9 -19 -19 -30 -9 -11
-17 -27 -17 -35 0 -8 -5 -15 -10 -15 -7 0 -7 -7 1 -21 6 -12 8 -37 5 -58 -20
-109 -21 -172 -5 -187 8 -8 19 -11 22 -7 4 3 7 1 7 -5 0 -7 -7 -12 -16 -12
-28 0 -41 -25 -48 -89 -8 -75 -2 -101 25 -101 16 0 19 -8 20 -52 3 -72 4 -79
17 -110 7 -18 8 -37 2 -59 -12 -39 5 -115 32 -143 10 -11 18 -28 18 -38 0 -10
43 -61 95 -114 53 -52 94 -98 91 -102 -9 -14 49 -104 77 -121 27 -15 29 -15
43 4 8 11 12 30 9 42 -3 12 -1 25 5 28 17 11 11 50 -10 63 -12 7 -18 17 -15
23 4 5 1 16 -5 24 -20 24 -1 36 48 32 62 -6 102 -17 102 -29 0 -5 30 -8 73 -5
81 4 110 -1 116 -23 2 -8 8 -34 13 -56 6 -29 16 -45 34 -52 29 -14 31 -28 4
-42 -10 -6 -17 -16 -14 -24 3 -7 -6 -24 -20 -37 -14 -13 -26 -30 -26 -37 0 -7
-7 -15 -15 -18 -8 -3 -14 -16 -13 -27 3 -29 -24 -87 -39 -87 -7 0 -13 -4 -13
-9 0 -5 -3 -16 -6 -25 -4 -10 3 -20 21 -28 23 -10 26 -16 21 -43 -4 -17 -3
-35 1 -39 5 -4 8 -11 8 -14 2 -24 29 -53 46 -49 10 3 19 1 19 -4 0 -16 32 -10
46 9 11 14 15 14 22 4 7 -11 12 -10 26 3 9 9 16 23 16 31 0 8 5 14 12 14 9 0
9 3 0 12 -15 15 -16 50 -1 65 8 8 8 17 -1 33 -11 20 -8 55 8 110 2 8 5 24 6
35 6 42 29 75 52 75 49 0 65 17 41 42 -11 11 -11 18 0 38 12 25 13 25 13 3 0
-24 5 -26 60 -23 24 1 41 9 53 26 24 31 64 31 98 0 33 -31 100 -40 107 -14 5
21 18 24 25 6 4 -10 6 -10 6 -1 1 16 -29 31 -51 28 -12 -2 -18 3 -18 16 0 13
-7 19 -22 20 l-23 0 23 12 c19 8 25 8 33 -4 5 -8 9 -9 9 -3 0 6 11 10 25 10
26 -2 48 -16 23 -16 -8 0 -15 -7 -15 -15 0 -11 11 -13 44 -11 44 3 67 -9 43
-24 -7 -4 -23 -7 -36 -5 -15 1 -26 -6 -35 -21 -7 -13 -16 -24 -21 -24 -4 0 -8
-13 -8 -30 0 -24 -4 -30 -22 -30 -21 0 -21 -1 -6 -16 15 -15 15 -19 1 -40 -8
-13 -22 -24 -31 -24 -13 0 -13 -2 1 -18 20 -22 23 -39 4 -23 -16 13 -27 5 -27
-21 0 -10 -4 -18 -9 -18 -5 0 -11 -9 -14 -20 -3 -11 -12 -20 -21 -20 -9 0 -16
8 -16 20 0 11 -6 20 -14 20 -17 0 -85 -42 -86 -52 0 -12 48 -10 71 2 23 13 25
7 3 -14 -8 -9 -11 -16 -5 -16 6 0 11 -5 11 -10 0 -7 -6 -7 -18 -1 -25 13 -46
-2 -37 -28 3 -11 11 -22 16 -22 5 -1 13 -2 18 -3 5 0 13 -4 17 -9 14 -13 36
-7 73 21 35 27 71 32 71 9 0 -6 9 -20 20 -32 12 -12 24 -45 29 -74 10 -62 14
-67 35 -46 9 9 16 14 16 10 0 -4 7 1 16 9 21 22 26 21 52 -18 19 -28 21 -38
12 -61 -12 -32 -6 -61 15 -69 20 -7 19 -35 0 -43 -19 -7 -49 19 -65 57 -11 26
-15 28 -48 23 -46 -7 -65 -21 -59 -45 3 -10 1 -15 -4 -12 -5 3 -22 -4 -38 -15
-16 -12 -38 -21 -49 -21 -11 0 -25 -6 -31 -14 -10 -12 -8 -17 8 -26 27 -14 26
-24 -5 -55 -25 -25 -24 -51 2 -41 8 3 20 -1 26 -9 11 -11 18 -8 45 18 l33 31
37 -19 c21 -10 61 -18 90 -19 40 -1 56 -6 67 -21 13 -17 13 -20 0 -23 -10 -3
-11 -8 -4 -22 7 -13 6 -19 -5 -24 -8 -3 -15 -15 -15 -26 0 -11 -6 -29 -12 -40
-10 -15 -10 -22 0 -32 9 -9 12 -8 12 8 0 23 69 62 79 46 4 -6 11 -4 18 3 10
11 6 15 -18 20 -30 7 -31 9 -26 47 4 29 0 49 -14 73 l-20 33 35 28 c31 25 35
35 37 80 2 38 -3 60 -20 87 -12 20 -21 42 -19 49 1 7 -10 26 -25 42 -15 16
-27 39 -27 51 0 14 -8 25 -20 28 -31 8 -24 23 18 33 32 8 39 6 53 -11 15 -17
19 -18 34 -5 16 13 45 69 45 85 0 9 -39 5 -45 -5 -9 -14 -41 -12 -53 3 -8 9
-3 29 18 72 32 65 37 90 25 118 -4 10 -3 28 4 40 47 86 44 84 70 68 18 -12 68
18 113 67 12 12 30 22 40 22 10 0 18 5 18 10 0 6 6 10 14 10 8 0 17 8 21 18
10 26 15 92 7 93 -37 7 -53 10 -93 17 -26 5 -60 8 -77 7 -18 -1 -33 4 -36 12
-3 7 -12 13 -21 13 -8 0 -15 5 -15 10 0 6 9 10 20 10 11 0 20 3 20 8 -1 10
-50 45 -50 35 0 -5 -14 -10 -31 -11 -40 -3 -69 -19 -69 -37 0 -12 -5 -12 -24
-3 -14 6 -33 7 -43 3 -10 -5 -22 -7 -28 -5 -9 3 -98 8 -174 9 -13 1 -30 -7
-37 -17 -11 -14 -15 -14 -22 -4 -10 16 -21 14 -40 -5 -7 -7 -26 -13 -40 -13
-43 0 -90 -17 -122 -43 -36 -31 -80 -27 -80 7 0 25 -53 56 -94 56 -19 0 -23 5
-23 26 0 15 -8 31 -16 36 -27 14 -13 86 22 115 25 21 27 27 17 48 -14 32 -36
39 -86 25 -22 -6 -44 -9 -49 -6 -10 6 -51 -39 -51 -57 0 -7 -16 -13 -41 -14
-27 -1 -49 -9 -64 -23 -19 -18 -32 -21 -67 -17 -24 3 -47 1 -53 -3 -5 -4 -15
-3 -21 4 -13 14 -14 19 -14 54 0 15 -5 34 -10 42 -9 13 -12 13 -21 -2 -12 -22
-29 -23 -29 -3 0 8 -8 16 -17 17 -10 0 -31 3 -48 5 -16 2 -40 4 -53 4 -27 1
-46 41 -37 77 4 15 2 21 -4 17 -13 -8 -3 54 12 73 7 9 7 16 -1 24 -15 15 -15
78 -1 114 7 21 7 34 -2 52 -12 21 -10 26 23 56 43 40 58 93 37 133 -8 15 -22
28 -32 31 -35 9 -18 39 39 68 31 15 61 36 68 46 7 9 24 22 39 27 24 9 33 30
28 64 0 4 4 7 9 7 6 0 10 4 10 10 0 5 18 33 40 62 22 29 39 60 37 69 -2 8 2
24 9 34 12 16 10 21 -12 42 l-25 23 30 30 c16 17 38 30 49 30 11 0 22 4 24 8
2 5 24 21 50 35 36 20 48 23 48 12 0 -8 8 -18 17 -24 21 -11 67 10 82 38 7 12
24 20 50 23 35 3 41 0 56 -28 10 -19 14 -40 10 -53 -3 -12 -2 -21 3 -21 5 0
29 -13 53 -29 l44 -30 23 22 23 21 -22 17 c-30 22 -19 51 18 49 49 -4 60 0 89
27 37 34 84 45 105 24 27 -27 32 -41 14 -41 -9 0 -19 9 -22 20 -4 14 -14 20
-34 20 -37 0 -36 -13 2 -61 20 -26 39 -39 54 -39 29 0 39 -14 21 -29 -18 -15
-9 -49 15 -62 11 -5 19 -19 19 -30 0 -37 31 -35 64 4 29 34 32 35 57 22 46
-25 128 6 114 44 -6 15 13 43 24 37 4 -3 17 4 30 13 20 15 22 21 12 40 -7 12
-24 26 -37 31 -22 9 -24 12 -11 24 20 20 139 67 154 62 8 -3 13 2 13 14 0 11
11 27 24 35 15 10 25 27 26 43 0 15 1 36 2 47 0 11 -2 28 -6 37 -6 12 0 25 18
41 20 19 53 77 43 77 -1 0 -32 -24 -68 -53z m-799 -2031 c0 -8 -4 -18 -10 -21
-5 -3 -10 -17 -10 -30 0 -13 -5 -27 -11 -31 -7 -4 -10 -36 -8 -88 4 -127 5
-122 -52 -140 -56 -19 -84 -9 -74 24 3 10 -1 36 -10 58 -15 38 -15 41 6 83 13
24 26 46 29 49 4 3 10 17 14 33 4 18 13 27 26 27 10 0 23 6 27 13 20 30 73 47
73 23z m547 -595 c7 -9 13 -24 13 -34 0 -14 -5 -16 -25 -11 -15 4 -25 2 -25
-5 0 -6 -11 -11 -25 -11 -18 0 -25 -5 -25 -19 0 -23 -76 -91 -101 -91 -11 0
-19 3 -19 7 0 17 45 103 54 103 17 0 86 52 80 61 -19 32 49 31 73 0z"/>
<path d="M1906 2878 c-13 -15 -15 -22 -6 -28 9 -5 9 -9 1 -14 -19 -12 -12 -31
18 -49 37 -22 71 -22 109 0 27 16 31 16 55 0 14 -9 31 -30 38 -47 8 -16 18
-30 23 -30 6 0 4 -6 -2 -12 -10 -10 -15 -10 -22 2 -7 11 -12 10 -29 -11 -24
-28 -28 -64 -7 -56 8 3 20 -1 26 -8 10 -11 17 -12 34 -3 11 6 24 15 27 21 4 5
16 0 28 -12 34 -34 55 -24 59 28 4 44 -19 107 -45 124 -7 4 -13 16 -13 26 0
38 -69 73 -97 49 -10 -8 -17 -8 -25 0 -7 7 -24 12 -39 12 -15 0 -32 6 -38 13
-18 22 -75 19 -95 -5z"/>
<path d="M12636 2775 c-9 -9 -21 -13 -27 -10 -5 4 -23 1 -40 -5 -23 -10 -32
-10 -46 1 -11 10 -14 10 -9 2 4 -7 3 -13 -1 -13 -5 0 -9 -9 -10 -20 -1 -11 4
-20 12 -20 14 0 15 -17 1 -39 -6 -10 -5 -12 2 -7 7 4 12 2 12 -3 0 -6 -6 -11
-12 -11 -9 0 -8 -4 2 -10 10 -7 -25 -10 -107 -10 -116 0 -123 1 -123 20 0 26
-15 25 -35 -2 -8 -13 -18 -22 -20 -20 -13 6 -25 1 -25 -11 0 -8 -15 -14 -39
-15 -34 -2 -40 0 -43 20 l-3 23 -20 -22 c-11 -13 -25 -23 -32 -23 -7 0 -23 -5
-36 -11 -18 -8 -23 -17 -19 -34 6 -35 -45 -83 -91 -87 -19 -1 -34 -5 -31 -9 2
-4 -3 -12 -10 -18 -10 -9 -16 -9 -21 -1 -4 6 -13 9 -21 6 -8 -3 -17 1 -20 9
-4 10 -21 15 -51 15 -41 0 -44 2 -39 23 3 12 4 17 1 11 -6 -12 -124 -1 -154
16 -11 5 -36 10 -55 10 -20 0 -36 5 -36 10 0 15 -19 12 -36 -5 -20 -19 -44
-19 -44 0 0 14 -4 14 -31 -1 -17 -8 -40 -14 -50 -11 -11 3 -19 1 -19 -4 0 -5
-9 -9 -19 -9 -11 0 -26 -7 -35 -15 -8 -8 -31 -15 -50 -15 -25 0 -36 4 -36 15
0 21 -18 19 -32 -5 -7 -11 -21 -20 -30 -20 -11 0 -18 -8 -18 -20 0 -16 -7 -19
-46 -18 -32 0 -51 6 -62 19 -9 11 -24 19 -34 19 -10 0 -18 7 -18 15 0 11 -11
15 -40 15 -29 0 -40 -4 -40 -15 0 -8 -8 -15 -18 -15 -10 0 -25 -9 -35 -20 -12
-15 -29 -20 -64 -20 l-48 0 3 -60 c2 -33 8 -60 14 -60 6 0 6 -6 -2 -15 -11
-13 -15 -13 -33 0 -26 18 -93 20 -103 3 -4 -7 -4 -10 1 -6 4 4 14 0 22 -8 8
-8 18 -12 23 -9 5 3 12 0 16 -6 4 -8 9 -7 15 2 6 10 8 8 7 -7 -2 -15 -7 -20
-20 -16 -29 7 -21 -14 22 -58 32 -33 36 -40 20 -40 -17 0 -20 -7 -20 -40 0
-33 3 -40 20 -40 18 0 20 -7 20 -60 0 -64 3 -67 63 -61 11 2 17 -5 17 -18 0
-18 6 -21 39 -21 22 0 41 5 43 11 2 7 11 7 28 0 24 -9 24 -10 3 -10 -26 -1
-31 -19 -9 -27 8 -3 12 -12 9 -20 -4 -10 0 -12 11 -8 10 4 18 0 22 -10 8 -21
114 -24 114 -3 0 12 39 19 41 7 6 -42 19 -67 19 -36 0 15 2 15 25 0 16 -10 51
-18 93 -19 37 -2 90 -4 117 -5 81 -3 85 -2 85 23 1 22 1 22 15 -3 8 -14 14
-22 15 -18 0 10 40 -24 40 -35 0 -4 -5 -5 -12 -1 -7 4 -8 3 -4 -4 4 -6 13 -9
21 -5 8 3 15 0 15 -6 0 -6 7 -8 15 -5 8 4 15 2 15 -3 0 -11 60 -4 76 8 6 5 24
9 40 8 66 -4 84 1 84 20 0 25 22 32 38 12 10 -12 12 -13 6 -1 -7 12 -5 13 8 3
8 -7 18 -9 23 -5 4 4 5 -2 3 -13 -2 -11 -10 -19 -17 -17 -7 1 -10 -2 -6 -8 3
-5 1 -10 -6 -10 -7 0 -9 -3 -6 -7 4 -3 15 2 26 11 11 10 22 13 25 8 3 -6 16
-8 29 -4 22 5 22 5 3 -16 -17 -20 -18 -22 -2 -22 9 0 14 5 11 10 -3 6 5 14 19
20 14 5 26 12 26 14 0 3 -6 3 -14 0 -8 -3 -23 -1 -33 5 -16 9 -15 10 7 11 23
1 23 2 5 10 -17 7 -14 9 15 11 19 1 43 3 52 3 9 0 15 3 12 8 -3 4 0 8 5 8 6 0
11 7 11 15 0 8 6 15 13 15 8 0 14 6 14 14 0 8 -6 12 -14 9 -8 -3 -13 2 -13 15
0 11 7 22 15 26 8 3 15 15 15 26 0 11 5 20 11 20 6 0 10 12 9 28 -3 42 -1 49
15 56 11 4 14 -2 11 -24 -5 -42 7 -55 29 -33 17 17 17 18 1 21 -9 2 -15 9 -13
15 2 7 11 11 20 9 11 -2 15 2 11 11 -3 9 3 17 16 20 12 3 19 10 15 16 -4 7 10
11 39 11 39 0 46 3 46 19 0 11 5 23 12 27 7 5 8 3 3 -7 -7 -11 -6 -12 7 -2 8
7 17 12 19 10 2 -1 2 1 -1 5 -3 4 -4 48 -2 97 3 81 6 91 22 91 10 0 20 6 23
13 2 7 8 8 13 3 5 -5 4 -11 -3 -13 -7 -3 -13 -14 -13 -25 0 -18 5 -20 45 -16
25 2 45 -1 45 -6 0 -5 3 -7 6 -4 3 3 0 15 -7 26 -11 17 -10 24 2 38 12 15 12
16 0 9 -11 -6 -13 -3 -9 13 4 15 2 22 -8 22 -8 0 -14 5 -14 10 0 8 45 15 72
11 4 0 5 5 2 13 -3 7 1 16 9 19 11 4 14 -1 12 -21 -4 -42 4 -52 46 -52 41 0
49 -13 29 -50 -7 -13 -7 -21 0 -25 6 -4 10 -3 9 2 -5 31 7 28 45 -12 29 -30
42 -38 39 -25 -5 18 0 20 36 20 30 0 41 -4 41 -15 0 -8 -9 -15 -21 -15 -12 0
-18 -4 -13 -11 3 -6 1 -15 -6 -19 -9 -5 -9 -9 -1 -14 6 -4 11 -3 11 2 0 6 9 8
20 5 11 -3 20 -10 20 -15 0 -5 5 -6 10 -3 10 6 13 -8 12 -55 0 -14 2 -19 5
-12 2 6 9 12 14 12 6 0 7 -6 3 -12 -4 -7 -4 -10 1 -6 4 4 15 2 23 -4 13 -11
14 -8 8 20 -6 26 -4 32 9 32 9 0 15 -6 13 -12 -3 -7 5 -20 16 -30 18 -15 19
-19 6 -29 -12 -9 -12 -10 4 -5 11 4 23 1 27 -5 17 -29 74 -13 62 17 -3 8 0 14
6 14 6 0 11 -9 11 -20 0 -17 6 -19 43 -16 23 1 48 -2 56 -8 11 -8 13 -8 7 2
-5 8 2 12 23 12 26 0 31 4 31 24 0 14 5 28 10 31 6 4 8 11 4 16 -3 6 0 10 7 8
47 -6 59 1 59 35 0 18 7 39 15 46 10 9 15 9 15 1 0 -6 7 -11 15 -11 8 0 15 -4
15 -8 0 -4 10 -8 23 -9 21 -2 20 -1 -4 12 -34 18 -45 55 -19 62 12 3 17 10 12
21 -5 15 -4 16 13 2 10 -8 16 -10 12 -4 -9 15 17 49 31 40 7 -4 12 -14 12 -21
0 -8 10 -19 23 -25 21 -11 21 -10 3 4 -19 16 -19 16 4 16 13 0 35 10 48 23 24
22 24 22 18 1 -4 -14 -1 -26 11 -35 11 -9 14 -10 9 -1 -4 7 -1 12 8 12 19 0
22 -60 6 -91 -7 -13 -7 -19 0 -19 5 0 10 7 10 15 0 9 9 15 21 15 18 0 19 -2 9
-15 -8 -9 -8 -15 -2 -15 6 0 10 -9 9 -19 -1 -12 -7 -17 -17 -15 -8 3 -4 -1 10
-8 14 -7 27 -15 30 -19 6 -7 46 -29 54 -29 3 0 6 9 6 20 0 22 26 28 33 8 2 -7
2 -2 0 12 -2 14 -11 30 -19 36 -22 17 -18 47 6 41 18 -5 20 0 20 40 0 36 3 44
17 41 9 -2 19 -10 21 -18 5 -13 3 -13 -14 -1 -18 14 -18 14 -3 -2 12 -14 21
-16 42 -8 32 12 36 31 7 31 -25 0 -27 32 -3 60 21 24 41 26 49 5 6 -14 34 -22
34 -9 0 3 -8 19 -17 35 -15 25 -15 31 -4 38 11 7 11 9 0 14 -11 4 -11 6 -1 6
9 1 10 6 3 20 -6 10 -9 44 -8 75 2 32 -1 60 -6 63 -5 3 -7 14 -4 24 3 11 1 17
-4 13 -7 -4 -14 29 -11 57 1 3 -6 6 -13 6 -9 0 -17 -14 -21 -34 -8 -44 -19
-49 -22 -10 -2 17 -4 32 -5 33 -4 4 -32 6 -60 5 -24 -1 -27 -4 -22 -23 4 -15
3 -18 -3 -10 -6 9 -13 7 -28 -10 -14 -17 -15 -19 -2 -9 15 11 20 9 38 -21 11
-18 20 -27 20 -20 0 7 13 12 30 12 27 0 30 -3 30 -31 0 -27 -3 -30 -22 -24
-22 7 -23 7 -3 -8 18 -14 13 -15 -63 -15 -64 0 -82 3 -82 14 0 8 -4 14 -10 14
-15 0 -50 33 -44 42 3 4 -5 8 -18 8 -36 0 -78 23 -78 42 0 20 -16 32 -24 19
-4 -5 0 -12 6 -14 8 -3 7 -6 -4 -6 -9 -1 -22 7 -27 17 -10 16 -10 16 -11 0 0
-24 -19 -23 -46 3 -12 11 -36 21 -53 21 -30 1 -46 18 -16 18 8 0 15 5 15 11 0
6 -9 8 -21 4 -12 -4 -27 -8 -33 -9 -7 -1 -23 -12 -36 -24 -26 -24 -40 -28 -40
-12 0 6 -15 10 -33 10 -19 0 -42 9 -57 23 -22 20 -34 22 -105 19 -74 -2 -140
11 -131 27 10 15 -63 11 -78 -4z"/>
<path d="M3396 2009 c-20 -16 -35 -20 -58 -15 -21 4 -44 -1 -74 -16 -41 -20
-64 -48 -29 -34 8 3 15 1 15 -4 0 -6 7 -10 16 -10 8 0 12 -4 9 -10 -3 -5 0
-10 7 -11 7 0 3 -5 -9 -11 -16 -8 -23 -20 -23 -40 0 -15 -3 -28 -8 -28 -4 0
-12 -10 -17 -22 -6 -12 -21 -25 -35 -29 -14 -4 -18 -8 -10 -8 12 -1 12 -4 -2
-12 -17 -9 -17 -12 1 -47 l19 -37 -24 -12 c-13 -6 -22 -7 -18 -2 3 5 0 9 -6 9
-6 0 -16 -11 -22 -25 -6 -14 -22 -28 -34 -31 -25 -6 -47 3 -39 16 3 4 -1 13
-9 19 -8 7 -17 23 -20 36 -4 16 -14 25 -26 25 -19 0 -45 32 -34 43 3 3 0 15
-6 27 -6 12 -14 19 -17 16 -3 -3 -14 -1 -25 5 -17 9 -19 18 -14 57 3 26 10 48
16 50 13 5 13 22 1 22 -9 0 -52 -34 -74 -59 -48 -52 -47 -48 -27 -66 10 -9 20
-27 22 -40 4 -20 0 -24 -34 -29 -36 -6 -38 -8 -38 -41 0 -20 7 -47 16 -60 31
-47 -2 -98 -39 -60 -18 17 -37 20 -37 5 0 -5 -9 -10 -19 -10 -11 0 -23 5 -26
10 -3 6 2 10 11 10 35 0 5 11 -40 15 -25 2 -51 7 -57 10 -5 4 -19 -1 -30 -11
-18 -16 -19 -16 -13 -1 4 12 1 17 -10 17 -10 0 -13 -6 -9 -16 5 -12 0 -15 -23
-12 -16 2 -28 8 -27 13 1 6 -26 11 -60 12 -34 1 -86 7 -114 13 -29 5 -74 14
-100 19 -27 4 -56 11 -65 15 -9 4 -22 5 -28 1 -34 -21 -187 -21 -210 0 -16 14
-19 13 -35 -11 -16 -26 -16 -29 -1 -56 10 -15 14 -33 11 -38 -11 -18 14 -11
35 10 22 22 56 27 62 9 3 -8 10 -6 20 5 22 21 44 20 82 -3 26 -16 47 -19 135
-17 58 2 140 -3 185 -11 56 -10 139 -13 267 -11 l186 3 32 33 c18 17 27 32 21
32 -6 0 -8 5 -5 10 11 17 101 12 116 -7 12 -14 12 -16 -1 -9 -8 5 1 -5 20 -23
44 -39 72 -47 120 -32 20 6 53 11 71 11 19 0 68 7 109 15 41 9 86 17 100 19
14 3 38 9 53 15 23 9 32 8 43 -4 9 -8 26 -15 40 -15 17 0 24 -6 24 -19 0 -29
11 -32 123 -37 58 -2 103 -8 105 -14 2 -5 10 -10 18 -10 8 0 14 -5 14 -11 0
-6 5 -7 13 -2 21 13 37 12 37 -3 0 -10 12 -14 40 -14 22 0 40 -4 40 -10 0 -15
93 -12 116 5 12 8 24 11 28 7 4 -3 4 2 0 12 -6 16 -4 18 14 14 15 -4 23 -1 27
13 6 19 35 27 35 9 0 -10 -41 -35 -52 -32 -5 1 -8 -7 -8 -19 0 -11 5 -17 10
-14 6 3 16 3 23 -2 6 -4 23 -9 37 -9 14 -1 27 -3 30 -4 28 -13 217 -18 280 -8
101 16 100 15 100 51 0 29 5 35 38 50 49 21 51 21 45 -2 -4 -15 2 -20 34 -25
28 -5 39 -12 40 -26 1 -10 11 -28 22 -39 37 -37 241 -29 241 9 0 16 36 12 50
-5 18 -22 45 -18 62 7 10 15 25 22 51 22 41 1 50 18 15 27 -20 6 -21 7 -5 14
10 4 27 1 42 -9 31 -21 32 -20 32 7 0 38 22 76 46 77 4 0 7 -7 7 -16 0 -13 3
-14 15 -4 8 7 22 10 30 6 9 -3 14 -2 12 2 -3 4 1 13 9 20 12 11 14 8 14 -15 0
-23 5 -28 27 -30 17 -1 22 2 13 7 -11 7 -12 14 -2 35 10 21 17 26 35 21 12 -3
37 -6 56 -6 28 0 33 -3 28 -19 -5 -19 -3 -19 34 -4 32 12 42 13 54 3 13 -11
21 -10 41 1 21 11 27 11 34 -1 5 -8 6 -19 3 -25 -3 -5 0 -4 8 3 15 14 43 17
34 3 -3 -5 -1 -13 5 -16 6 -4 9 -1 8 7 -2 7 8 14 21 16 15 2 21 0 17 -7 -5 -7
-1 -8 10 -4 13 5 15 3 9 -8 -4 -8 -5 -11 0 -7 4 4 14 3 22 -3 9 -9 13 -8 13 0
0 6 8 3 18 -6 11 -10 17 -21 15 -25 -1 -3 6 -4 17 -1 12 3 20 0 20 -6 0 -7 5
-9 10 -6 6 3 10 22 10 41 0 39 12 44 34 12 15 -21 16 -22 16 -2 0 12 7 20 20
21 14 1 19 -4 17 -17 -3 -24 16 -27 23 -3 7 25 35 23 36 -2 1 -29 -7 -39 -18
-24 -8 11 -9 11 -5 -1 8 -30 32 -16 31 18 0 28 3 32 28 33 15 1 34 2 41 3 16
2 39 -43 32 -62 -4 -11 -2 -12 8 -4 17 14 38 -3 30 -24 -3 -8 2 -17 11 -20 9
-3 16 -17 16 -30 0 -13 5 -24 10 -24 6 0 11 -19 11 -42 1 -40 2 -41 9 -13 7
28 8 29 10 5 1 -14 1 -44 0 -67 -1 -25 3 -43 9 -43 6 0 11 -6 11 -14 0 -8 9
-18 20 -21 11 -3 20 -14 20 -23 0 -15 -2 -15 -10 -2 -5 8 -10 11 -10 6 0 -6 9
-20 21 -32 20 -21 20 -24 5 -45 -13 -19 -23 -23 -61 -20 l-46 3 3 -44 c2 -24
7 -49 12 -56 4 -7 5 -21 1 -31 -3 -12 0 -21 10 -25 8 -3 14 -9 13 -13 -7 -20
26 -73 44 -73 11 0 27 -7 35 -16 13 -13 17 -13 24 -2 10 16 31 18 42 3 5 -5 6
0 2 11 -4 14 0 24 10 27 8 4 12 13 9 22 -7 17 14 48 27 39 5 -3 9 0 9 5 0 15
27 14 36 -1 5 -7 3 -8 -6 -3 -9 5 -11 4 -6 -3 4 -7 18 -12 32 -12 14 0 24 -6
24 -14 0 -8 9 -22 21 -30 13 -9 18 -19 13 -28 -4 -7 -4 -10 1 -6 4 4 14 3 20
-2 8 -6 22 -7 35 -2 26 10 70 4 70 -9 0 -5 7 -9 15 -9 8 0 23 -9 32 -20 10
-11 22 -20 28 -20 5 0 4 4 -4 9 -7 5 -10 14 -6 21 5 8 10 9 14 2 3 -6 23 -13
45 -17 l38 -8 -5 42 c-2 22 0 41 4 41 5 0 8 14 7 31 -3 26 1 32 19 35 16 3 21
-1 20 -15 -1 -11 -4 -18 -8 -15 -4 2 -10 0 -13 -5 -3 -5 1 -11 9 -15 8 -3 15
-15 15 -26 0 -11 7 -20 15 -20 8 0 15 -5 15 -11 0 -5 4 -8 9 -4 5 3 12 1 16
-5 4 -6 11 -8 16 -5 5 4 9 1 9 -5 0 -6 8 -10 18 -9 30 3 43 -1 38 -10 -4 -5 0
-11 6 -14 20 -6 48 4 48 18 0 9 15 13 45 13 31 -1 44 -5 41 -13 -2 -6 2 -12 9
-12 7 0 11 6 8 14 -3 7 2 13 10 13 21 0 31 -17 15 -23 -7 -3 -3 -6 10 -6 13
-1 21 3 17 8 -8 13 14 25 49 27 15 1 32 7 37 15 7 11 14 8 32 -15 26 -32 72
-43 82 -19 3 9 8 13 12 10 3 -4 14 -2 25 4 16 8 17 13 7 25 -6 8 -9 17 -5 21
3 3 6 1 6 -5 0 -19 34 -14 53 9 10 11 21 18 24 15 3 -3 1 -12 -5 -19 -13 -15
-4 -18 58 -16 65 2 70 3 70 21 0 12 5 16 18 12 16 -5 16 -5 0 6 -24 15 -23 40
2 40 13 0 19 -6 18 -17 -4 -46 2 -63 22 -63 15 0 20 -7 20 -25 0 -17 5 -25 18
-25 14 0 15 2 2 10 -12 8 -12 10 3 16 9 3 14 11 11 16 -9 15 48 6 69 -11 27
-23 20 -33 -10 -14 l-28 17 28 -28 c15 -16 27 -35 27 -42 0 -8 7 -14 15 -14
10 0 15 -10 15 -31 0 -24 -4 -30 -15 -25 -12 4 -15 -4 -15 -41 0 -39 2 -44 15
-33 8 6 13 17 12 22 -1 6 4 13 11 15 7 3 13 -4 13 -16 1 -12 3 -24 4 -28 2 -5
6 -19 10 -31 5 -15 10 -19 15 -12 5 8 14 8 33 -1 15 -7 24 -16 20 -22 -3 -5 0
-7 8 -5 8 3 22 1 32 -4 15 -7 16 -12 6 -24 -7 -9 -8 -14 -1 -14 6 0 12 5 14
11 3 8 10 8 25 -2 31 -19 43 -1 14 22 -17 14 -19 19 -7 19 9 0 16 -5 16 -11 0
-8 4 -8 14 0 10 8 16 9 21 1 3 -5 -1 -10 -10 -10 -14 0 -14 -3 0 -30 16 -31
20 -54 7 -46 -4 2 -14 1 -22 -4 -11 -7 -12 -12 -3 -21 14 -14 73 -20 73 -8 0
5 10 5 23 1 38 -14 50 -8 59 27 l9 33 50 -6 c31 -4 49 -3 49 4 0 5 5 10 11 10
5 0 7 -4 4 -10 -3 -5 -1 -10 4 -10 6 0 10 10 8 21 -1 12 3 24 10 26 7 3 9 -3
6 -16 -3 -13 -1 -21 7 -21 8 0 10 -9 6 -26 -5 -18 -3 -24 5 -19 6 4 9 18 6 31
-4 21 -1 23 36 19 22 -3 47 -11 57 -20 9 -8 22 -15 29 -15 13 0 24 -10 50 -43
8 -10 10 -17 5 -16 -19 3 -34 -1 -34 -11 0 -12 38 -9 59 5 10 5 16 4 19 -3 2
-7 19 -12 38 -12 19 0 34 -5 34 -11 0 -6 -7 -8 -16 -5 -8 3 -12 2 -9 -4 3 -6
13 -10 21 -10 8 0 14 -10 14 -25 0 -17 4 -23 15 -19 8 4 12 11 8 18 -3 6 -3 8
2 4 4 -4 19 4 32 18 14 15 24 20 23 13 -5 -34 1 -59 15 -59 8 0 14 -9 13 -23
-2 -52 3 -74 23 -95 11 -12 24 -20 30 -17 5 4 19 8 31 10 16 4 19 2 10 -7 -7
-7 -12 -16 -12 -20 0 -11 70 -7 77 5 7 11 33 -12 33 -29 0 -17 20 -19 20 -1 1
8 4 7 13 -3 7 -9 25 -26 41 -38 27 -21 38 -22 190 -22 89 1 179 6 201 12 22 6
44 11 49 9 4 -1 14 5 20 14 6 9 16 16 21 15 22 -5 27 1 15 15 -7 8 -25 15 -41
15 -20 0 -29 5 -29 16 0 10 -6 14 -15 11 -8 -4 -17 -1 -21 4 -4 7 9 10 37 9
68 -4 79 -1 79 18 0 14 9 18 39 19 35 2 39 -1 39 -22 0 -14 -4 -22 -9 -19 -5
3 -14 -7 -19 -21 -13 -34 -13 -44 1 -25 8 11 12 12 16 3 5 -14 33 -18 33 -5 0
4 16 9 35 10 27 2 33 -1 29 -12 -5 -13 -2 -13 19 -3 14 6 25 14 25 17 -2 22 5
30 26 30 13 0 27 -6 29 -12 3 -8 6 -5 6 5 1 11 6 15 12 11 6 -3 15 -1 19 6 5
8 13 9 21 4 12 -7 33 -9 69 -5 6 1 10 9 10 20 0 13 10 20 31 25 45 9 49 8 49
-10 0 -12 4 -14 13 -7 6 6 33 11 60 11 37 0 50 -4 57 -19 6 -10 8 -19 4 -19
-3 0 -1 -6 5 -13 6 -8 9 -17 6 -21 -3 -3 1 -2 7 4 7 5 20 10 31 10 18 0 18 -8
0 -57 -3 -7 0 -13 6 -13 6 0 11 -7 11 -15 0 -8 9 -15 20 -15 13 0 20 -7 20
-19 0 -29 27 -44 72 -43 48 2 71 18 65 44 -3 11 0 18 9 18 8 0 14 -7 14 -16 0
-10 6 -14 15 -10 8 3 15 2 15 -2 0 -31 419 61 450 99 3 4 38 23 77 44 40 21
70 42 67 46 -3 5 1 9 9 9 7 0 23 9 35 20 12 11 25 20 30 20 5 0 27 16 50 36
23 19 42 33 42 30 0 -3 10 4 21 15 19 19 20 25 9 43 -12 19 -12 20 3 8 15 -13
58 -8 56 6 -7 45 14 70 26 32 3 -11 10 -20 14 -20 13 0 21 57 13 80 l-8 21
-22 -21 c-18 -17 -22 -18 -22 -5 0 8 -7 15 -15 15 -8 0 -15 -5 -15 -11 0 -5
-4 -8 -9 -5 -4 3 -7 18 -6 33 1 15 3 43 3 61 1 21 7 32 17 32 17 0 30 41 22
70 -3 11 -1 20 5 20 5 0 6 5 2 12 -4 7 -3 8 5 4 6 -4 8 -12 5 -18 -4 -6 -2 -8
3 -5 6 4 16 21 23 38 11 26 11 32 -1 39 -7 5 -10 12 -6 16 4 4 13 2 19 -4 14
-14 134 -16 142 -3 3 5 16 7 29 4 17 -4 19 -3 7 6 -18 13 55 3 82 -10 9 -5 27
-9 40 -9 16 0 27 -9 35 -28 8 -18 26 -33 50 -41 21 -8 41 -18 44 -24 4 -5 13
-6 20 -1 7 4 30 9 51 10 21 1 55 13 75 26 21 12 59 33 84 44 26 12 50 27 53
33 10 16 56 13 62 -4 4 -8 14 -15 24 -15 10 0 21 -6 23 -13 4 -9 6 -9 6 1 1 6
7 12 14 12 18 1 67 47 67 65 0 8 7 15 15 15 17 0 23 52 14 125 -3 21 1 31 12
33 13 2 15 -7 13 -57 -5 -83 14 -105 85 -102 45 1 54 -2 58 -18 6 -24 43 -36
43 -14 0 10 9 14 28 13 44 -3 52 -1 52 16 0 11 -6 14 -17 10 -15 -5 -15 -4 1
9 11 8 27 15 37 15 10 0 19 11 23 25 7 29 36 34 36 6 0 -10 7 -21 15 -25 8 -3
15 -12 15 -21 0 -8 -7 -15 -15 -15 -11 0 -15 -11 -15 -40 0 -29 4 -40 15 -40
9 0 15 9 15 22 0 12 3 19 6 15 4 -3 14 3 23 13 15 19 17 19 38 2 21 -15 22
-21 12 -56 -9 -33 -14 -37 -35 -33 -13 2 -29 -2 -35 -9 -6 -8 -15 -11 -20 -8
-5 3 -18 7 -30 9 -17 3 -19 1 -9 -9 8 -11 8 -15 -2 -19 -8 -4 -7 -6 5 -6 9 -1
17 4 17 9 0 6 5 10 10 10 6 0 10 -9 10 -20 0 -11 -4 -20 -8 -20 -4 0 -9 -13
-10 -30 -1 -16 2 -30 8 -30 5 0 11 8 12 18 0 9 2 22 3 27 2 6 3 18 4 27 1 12
6 15 18 11 11 -4 12 -8 5 -11 -7 -2 -12 -8 -12 -14 0 -5 9 -6 20 -3 16 5 20 2
20 -17 0 -17 3 -19 9 -9 7 10 13 11 30 1 12 -6 31 -13 43 -15 25 -5 49 -25 43
-35 -3 -5 9 -7 27 -4 18 2 34 8 36 14 2 5 15 10 28 10 14 0 24 6 24 14 0 8 9
17 19 21 12 4 18 12 14 21 -3 7 0 14 6 14 6 0 8 7 5 15 -7 17 7 20 22 6 5 -6
23 -12 39 -14 17 -2 29 -9 28 -15 -1 -5 10 -13 24 -17 20 -5 31 -2 40 12 11
14 11 18 1 21 -34 9 -39 13 -32 23 4 8 9 7 15 -2 5 -8 9 -9 9 -3 0 5 11 10 25
10 14 0 25 -4 25 -8 0 -4 5 -8 10 -8 6 0 10 8 10 18 0 10 6 24 13 31 10 11 10
13 0 7 -7 -4 -13 -2 -13 3 0 6 14 11 30 11 17 0 30 -4 30 -10 0 -15 17 -12 23
4 4 10 1 13 -9 9 -7 -3 -14 0 -14 6 0 13 69 15 89 2 7 -5 28 -5 47 -1 19 4 37
4 40 -1 7 -13 54 -11 54 1 0 6 10 2 22 -10 12 -11 26 -20 31 -20 6 0 15 -7 22
-16 9 -14 16 -14 33 -5 12 6 22 18 22 26 0 8 6 15 14 15 9 0 12 8 8 25 -2 15
0 25 7 25 6 0 11 -11 11 -24 0 -13 7 -27 16 -30 13 -5 15 -2 11 14 -4 15 0 20
14 20 13 0 19 -7 19 -21 0 -11 4 -17 10 -14 5 3 10 2 10 -3 0 -13 69 7 92 26
11 9 27 12 43 8 14 -4 25 -2 25 3 0 5 20 6 44 4 50 -6 63 6 44 39 -7 13 -11
28 -10 34 1 6 -9 19 -23 28 -26 17 -35 39 -12 31 29 -10 67 -13 72 -5 3 5 -3
7 -14 5 -18 -3 -19 -1 -8 16 14 22 19 23 47 9 11 -6 28 -14 39 -19 12 -6 22
-6 28 0 10 10 32 17 61 18 7 1 18 12 24 26 8 18 19 25 39 25 25 0 26 2 19 33
-4 17 -11 39 -14 48 -4 8 -2 28 4 44 8 20 8 30 0 35 -6 4 -1 11 12 17 28 12
110 8 139 -8 15 -8 24 -8 32 0 6 6 8 11 3 11 -4 0 0 7 8 16 9 8 14 19 11 24
-3 5 -1 11 5 15 5 3 10 -1 10 -10 0 -9 5 -13 11 -9 8 4 8 9 0 17 -6 6 -11 23
-11 37 0 23 4 26 38 25 43 0 76 -21 68 -42 -5 -11 2 -13 27 -11 39 4 45 11 39
46 -5 23 -6 24 -12 7 -6 -18 -7 -18 -12 3 -5 19 -2 22 28 22 30 0 36 -4 33
-26 -2 -15 25 -22 35 -9 13 15 76 26 76 12 0 -19 125 2 199 33 41 17 80 34 85
39 15 11 61 22 116 27 25 3 68 16 96 29 28 14 57 25 64 25 8 0 10 6 5 18 -4 9
-8 24 -10 32 -2 8 -4 16 -5 18 -3 3 -7 19 -9 32 0 6 -9 10 -20 10 -20 0 -51
39 -51 64 0 25 -28 25 -55 0 -21 -20 -24 -27 -15 -44 6 -11 15 -20 20 -20 16
0 11 -60 -5 -66 -8 -3 -31 3 -51 15 -19 12 -39 19 -44 16 -5 -3 -14 4 -20 15
-13 24 -26 25 -46 5 -23 -23 -38 -18 -52 15 -8 16 -20 30 -28 30 -8 0 -14 5
-14 11 0 6 -7 9 -15 5 -8 -3 -15 -1 -15 5 0 6 -4 7 -10 4 -5 -3 -7 0 -4 9 3 9
-2 17 -14 20 -11 4 -23 13 -26 21 -3 8 -14 15 -24 15 -10 0 -35 9 -57 20 -54
27 -83 26 -91 -4 -3 -13 -1 -33 5 -45 10 -17 9 -20 -4 -15 -10 4 -15 0 -15
-14 0 -23 -18 -32 -65 -32 -19 0 -37 -5 -41 -12 -5 -7 -3 -8 6 -3 9 5 11 4 6
-3 -4 -7 -27 -12 -52 -12 -28 0 -43 -4 -39 -10 3 -6 -1 -10 -9 -10 -9 0 -16
-4 -16 -10 0 -5 -18 -13 -39 -16 -27 -4 -41 -12 -44 -25 -3 -11 -1 -16 5 -13
6 4 14 1 19 -7 9 -16 -7 -39 -28 -39 -8 0 -26 -9 -40 -20 -21 -16 -28 -18 -45
-7 -61 37 -60 36 -84 12 -13 -13 -44 -38 -69 -55 -43 -30 -75 -77 -78 -118 0
-12 -3 -19 -6 -17 -2 3 -12 -2 -21 -10 -14 -13 -16 -11 -18 21 -3 45 -30 83
-59 84 -28 0 -39 -20 -47 -92 -5 -37 -13 -58 -23 -62 -8 -4 -13 -12 -10 -20 4
-9 -5 -19 -23 -26 -16 -7 -35 -18 -41 -26 -14 -17 -49 -19 -49 -3 0 6 -5 9
-11 7 -6 -2 -9 -7 -7 -12 2 -4 -9 -14 -23 -21 -22 -12 -32 -11 -72 3 -54 19
-78 11 -87 -29 -8 -32 -49 -37 -75 -9 -10 11 -24 20 -31 20 -7 0 -28 14 -46
30 -43 40 -63 45 -110 29 -33 -10 -39 -17 -38 -38 3 -43 1 -44 -36 -16 -57 44
-109 26 -168 -60 -16 -23 -23 -26 -54 -21 -45 7 -61 23 -63 61 -3 61 -20 101
-42 103 -12 0 -23 6 -25 12 -2 5 -15 10 -28 10 -14 0 -27 7 -31 16 -3 8 -11
13 -18 10 -6 -2 -18 4 -26 15 -16 22 -53 24 -90 5 -14 -7 -50 -13 -80 -13 -30
0 -55 -5 -57 -12 -3 -8 -9 -8 -23 0 -11 5 -24 7 -29 4 -6 -3 -10 -1 -10 4 0 6
-9 11 -20 11 -11 0 -20 5 -20 11 0 5 6 7 13 4 6 -4 3 1 -7 9 -20 16 -20 16 0
16 17 1 17 2 2 10 -9 6 -19 23 -23 39 -4 17 -14 31 -26 34 -16 4 -19 11 -15
29 3 13 3 17 0 11 -3 -7 -10 -13 -15 -13 -6 0 -7 5 -4 10 3 6 -1 10 -9 10 -9
0 -16 6 -16 14 0 7 -9 16 -20 19 -11 3 -20 2 -20 -2 0 -10 -74 0 -81 11 -7 11
-84 13 -129 3 -19 -4 -30 -3 -30 4 0 7 -10 9 -24 5 -18 -4 -28 0 -40 17 -9 13
-16 17 -16 10 0 -10 -4 -10 -12 -3 -22 18 -25 18 -47 -2 -14 -13 -21 -31 -21
-57 0 -28 -5 -41 -20 -49 -15 -8 -20 -21 -20 -55 0 -38 -3 -45 -20 -45 -11 0
-20 -4 -20 -10 0 -5 -18 -15 -40 -21 -21 -7 -38 -15 -37 -18 4 -16 -25 -50
-53 -61 -29 -12 -30 -15 -30 -71 l0 -59 -40 0 c-33 0 -40 3 -40 20 0 23 -22
26 -43 5 -8 -8 -18 -11 -21 -7 -4 3 -9 -3 -12 -15 -6 -22 -30 -29 -119 -35
-36 -2 -40 0 -39 20 0 16 -4 21 -13 17 -8 -3 -19 -5 -25 -5 -6 0 -3 -9 6 -19
17 -18 16 -19 -11 -24 -15 -3 -49 -9 -75 -12 -27 -3 -48 -10 -48 -16 0 -5 5
-9 10 -9 6 0 4 -10 -4 -22 -8 -13 -13 -35 -11 -49 3 -23 -1 -28 -27 -33 -16
-3 -34 -3 -39 0 -5 3 -9 0 -9 -6 0 -9 -22 -10 -80 -5 l-80 7 0 -26 c0 -22 -4
-26 -31 -26 -16 0 -28 -4 -25 -9 3 -5 -1 -11 -9 -15 -8 -3 -15 -16 -15 -30 0
-13 -3 -26 -7 -29 -5 -2 -2 -2 5 -1 6 2 12 -1 12 -7 0 -15 -59 -69 -76 -69 -8
0 -14 -6 -14 -14 0 -8 -9 -18 -20 -21 -11 -3 -20 -10 -20 -14 0 -11 -47 -61
-58 -61 -5 0 -17 -16 -28 -35 -10 -19 -24 -35 -31 -35 -7 0 -13 -6 -13 -12 0
-7 -7 -21 -15 -32 -13 -17 -15 -17 -30 -2 -23 23 -28 20 -21 -11 3 -16 3 -22
0 -16 -4 8 -25 13 -55 13 -36 0 -49 4 -49 14 0 8 -8 14 -17 14 -10 -1 -28 2
-40 6 -14 4 -23 3 -23 -3 0 -5 -7 -17 -16 -26 -21 -20 -73 -11 -92 16 -14 20
-38 27 -26 7 4 -6 -3 -4 -15 5 -13 8 -29 13 -37 10 -7 -2 -19 5 -26 16 -17 27
-53 27 -72 -1 l-16 -22 0 24 c0 14 -4 21 -8 15 -13 -18 -95 -11 -147 13 -27
13 -65 26 -82 29 -39 7 -43 18 -46 122 -1 72 -3 80 -22 83 -11 2 -19 9 -18 16
2 7 -7 11 -20 11 -12 -1 -30 2 -39 6 -15 6 -18 2 -18 -30 0 -21 -4 -34 -10
-30 -5 3 -10 20 -10 36 0 28 -2 29 -22 18 -28 -15 -55 -20 -134 -26 -61 -5
-61 -5 -74 -43 -7 -21 -10 -48 -7 -59 3 -12 1 -21 -4 -21 -5 0 -9 -7 -9 -16 0
-14 3 -14 15 -4 12 10 15 10 15 0 0 -9 5 -9 23 2 41 25 74 12 96 -38 18 -39
29 -49 54 -45 18 3 5 -17 -15 -23 -18 -5 -20 -8 -9 -15 26 -17 -24 -33 -67
-22 -1 1 2 10 8 21 6 11 7 20 2 20 -5 0 -13 -10 -19 -23 -7 -14 -20 -23 -38
-25 -32 -2 -57 -20 -49 -33 3 -5 10 -7 15 -3 6 3 -2 -12 -18 -35 -20 -29 -35
-40 -54 -41 -15 0 -32 -7 -39 -15 -7 -8 -15 -13 -19 -11 -3 2 -24 -4 -45 -15
-28 -13 -43 -16 -57 -9 -10 6 -26 10 -37 10 -11 0 -26 10 -35 22 -14 22 -15
21 -18 -26 -3 -33 0 -50 8 -53 15 -6 17 -33 3 -33 -5 0 -10 7 -10 15 0 8 -7
15 -15 15 -8 0 -14 3 -14 8 3 20 -2 32 -16 32 -8 0 -15 -4 -15 -8 0 -5 -7 -9
-16 -9 -13 0 -15 8 -9 46 4 25 14 54 22 63 17 19 14 24 -64 115 -18 21 -33 44
-33 52 0 7 -11 24 -24 36 -14 13 -22 25 -20 28 11 11 -38 18 -69 11 -17 -4
-35 -7 -39 -6 -5 1 -8 -7 -8 -18 0 -28 -19 -25 -60 10 -34 29 -73 39 -84 21
-4 -5 -12 -8 -19 -6 -65 14 -77 19 -77 25 0 5 -13 11 -30 15 -16 4 -28 10 -27
14 3 9 -75 81 -88 81 -5 0 -3 -5 5 -11 11 -8 9 -9 -10 -3 -13 4 -30 13 -38 20
-7 8 -22 14 -32 14 -10 0 -32 11 -48 25 -37 31 -45 31 -104 2 -37 -18 -62 -23
-115 -21 -62 2 -68 4 -67 23 0 13 -6 21 -16 21 -11 0 -22 14 -30 39 -7 23 -21
41 -31 44 -11 3 -22 13 -26 24 -10 28 -65 93 -78 93 -23 0 -44 35 -47 80 -2
25 -9 51 -16 59 -20 20 -81 61 -93 61 -17 0 -59 32 -59 44 0 24 -66 17 -124
-14 -43 -22 -62 -27 -75 -20 -15 7 -21 4 -30 -16 -7 -16 -17 -24 -25 -21 -18
7 -49 -38 -51 -75 -3 -38 -26 -57 -74 -59 -40 -3 -68 9 -43 18 6 3 12 11 12
18 0 15 -54 30 -70 20 -6 -4 -23 5 -37 19 -17 17 -37 26 -58 26 -18 0 -38 6
-44 14 -14 17 -23 18 -114 17 -50 0 -77 -6 -101 -20 -26 -16 -35 -18 -45 -8
-10 9 -15 8 -25 -6 -18 -24 -92 -20 -88 5 4 24 -29 40 -110 55 -23 4 -28 2
-28 -16 0 -11 5 -21 11 -21 5 0 7 -5 4 -10 -3 -6 -16 -10 -27 -10 -12 0 -29
-7 -38 -15 -9 -8 -37 -18 -62 -21 l-45 -6 -7 48 c-9 70 -45 142 -78 156 -28
13 -33 29 -28 86 1 13 -4 29 -10 37 -9 11 -5 17 19 30 27 13 30 19 25 43 -4
15 -10 28 -13 30 -36 15 -75 49 -84 72 -6 17 -17 30 -23 30 -6 0 -17 6 -24 14
-6 8 -17 13 -23 11 -7 -3 -16 -1 -22 3 -18 13 -55 71 -55 87 0 8 -5 15 -12 15
-9 0 -9 3 0 12 20 20 13 36 -18 43 -16 4 -30 13 -30 21 0 8 -5 14 -10 14 -6 0
-9 -5 -8 -11 2 -6 -2 -13 -8 -16 -7 -2 -24 17 -39 43 -26 45 -30 82 -11 125 5
12 1 18 -14 22 -22 6 -51 -18 -103 -86 -15 -21 -34 -37 -41 -37 -8 0 -16 -6
-19 -13 -3 -8 -20 -13 -43 -12 -22 0 -42 -3 -45 -7 -3 -5 -16 -11 -29 -13 -13
-2 -26 -9 -30 -15 -8 -13 -52 -9 -62 5 -5 7 -14 6 -27 -2 -18 -11 -20 -10 -15
5 5 16 5 16 -9 0 -8 -10 -26 -18 -41 -18 -14 0 -26 -4 -26 -9 0 -16 -47 -18
-80 -4 -36 14 -73 17 -84 6 -4 -5 -13 -8 -19 -8 -7 0 -13 -6 -13 -12 -1 -7 -2
-17 -3 -21 0 -5 -12 -14 -25 -20 -21 -10 -26 -8 -31 8 -4 11 -14 20 -23 20
-20 -1 -52 -23 -52 -37 0 -14 -44 -53 -59 -53 -9 0 -11 -8 -7 -25 4 -17 3 -23
-6 -20 -7 3 -25 -6 -41 -20 -15 -15 -31 -24 -36 -21 -5 3 -25 -5 -44 -18 -23
-16 -37 -20 -40 -13 -2 7 -13 3 -31 -10 -16 -13 -38 -20 -54 -19 -18 2 -29 -2
-33 -13 -4 -9 -7 -3 -6 17 0 18 -5 43 -10 55 -6 12 -15 34 -22 50 -9 23 -16
27 -51 27 -29 0 -39 -3 -34 -12 5 -8 2 -9 -12 -4 -10 4 -16 4 -12 1 7 -7 -27
-45 -40 -45 -5 0 -26 9 -48 19 -21 11 -42 17 -45 15 -15 -9 -65 -27 -71 -26
-5 1 -8 -4 -9 -11 0 -6 -6 3 -13 22 -7 19 -17 36 -23 38 -13 5 -33 -69 -38
-136 -2 -24 -5 -45 -7 -46 -2 -2 -28 -5 -57 -6 -41 -2 -57 1 -66 14 -7 9 -17
17 -22 17 -16 0 -60 75 -66 116 -4 21 -11 40 -17 42 -5 2 -10 10 -10 18 0 8
-12 25 -26 38 -25 21 -25 23 -10 39 10 9 19 25 21 34 2 10 6 25 10 34 3 9 0
21 -8 27 -11 9 -17 6 -27 -16 -7 -15 -14 -33 -16 -40 -5 -26 -14 -25 -44 3
-29 28 -85 38 -99 18 -7 -10 -65 -37 -68 -31 -1 1 -13 -7 -26 -20 -17 -16 -24
-33 -23 -53 2 -24 -1 -28 -13 -22 -9 4 -35 7 -58 8 -26 0 -52 8 -70 22 -33 23
-93 43 -135 43 -14 0 -28 6 -31 13 -4 11 19 56 35 67 13 10 -8 31 -38 39 -20
5 -29 14 -29 28 -1 11 -17 34 -37 52 -32 28 -42 31 -72 25 -34 -6 -52 8 -23
19 6 2 9 7 6 11 -3 3 -18 -3 -33 -15z"/>
<path d="M10893 857 c-36 -8 -43 -14 -43 -34 0 -17 4 -23 13 -20 8 3 14 -1 14
-9 0 -8 -5 -14 -11 -14 -11 0 -36 -45 -36 -63 0 -10 61 -6 77 5 6 5 14 5 18
-2 11 -18 21 -11 39 30 10 22 23 40 30 40 12 0 13 34 1 63 -8 19 -36 20 -102
4z"/>
</g>
</svg>
